comic-neue-angular_bold.sfdir
StartChar: exclam
Encoding: 33 33 94
Width: 211
Flags: MW
HStem: -5 21G<41 41> 659 20G<144 144>
VStem: 50 94<179 179 179 662 662 662>
LayerCount: 2
Back
Fore
SplineSet
144 179 m 1
 50 160 l 1
 50 662 l 1
 144 679 l 1
 144 179 l 1
149 134 m 1
 139 12 l 1
 41 -5 l 1
 51 117 l 1
 149 134 l 1
EndSplineSet
EndChar
StartChar: quotedbl
Encoding: 34 34 114
Width: 338
Flags: MW
HStem: 450 21G<40 40 189 189> 658 20G<135 135 284 284>
VStem: 40 95<467 467 467 660 660 660> 189 95<467 467 467 660 660 660>
LayerCount: 2
Back
Fore
SplineSet
135 467 m 1
 40 450 l 1
 40 660 l 1
 135 678 l 1
 135 467 l 1
284 467 m 1
 189 450 l 1
 189 660 l 1
 284 678 l 1
 284 467 l 1
EndSplineSet
EndChar
StartChar: numbersign
Encoding: 35 35 86
Width: 777
Flags: MW
HStem: -2 21G<131 131 322 322> 193 94<82 186 55 214 312 377 82 284 503 619> 392 94<118 244 91 271 118 342 370 435 560 660> 658 20G<425 425>
LayerCount: 2
Back
Fore
SplineSet
660 392 m 1
 533 392 l 1
 503 287 l 1
 647 287 l 1
 619 193 l 1
 475 193 l 1
 421 5 l 1
 322 -2 l 1
 377 193 l 1
 284 193 l 1
 230 5 l 1
 131 -2 l 1
 186 193 l 1
 55 193 l 1
 82 287 l 1
 214 287 l 1
 244 392 l 1
 91 392 l 1
 118 486 l 1
 271 486 l 1
 325 671 l 1
 425 678 l 1
 370 486 l 1
 462 486 l 1
 515 670 l 1
 614 677 l 1
 560 486 l 1
 687 486 l 1
 660 392 l 1
405 287 m 1
 435 392 l 1
 342 392 l 1
 312 287 l 1
 405 287 l 1
EndSplineSet
EndChar
StartChar: dollar
Encoding: 36 36 101
Width: 631
Flags: MW
HStem: -73 21G<262 262> 713 20G<356 356>
VStem: 95 103<473.5 499.5 473.5 542> 262 94<-55 3 3 3 102 283 419 566 566 566 664 716 716 716> 439 103<168.5 219.5>
LayerCount: 2
Back
Fore
SplineSet
356 573 m 1
 356 387 l 1
 481 347 542 285 542 196 c 0
 542 89 458 21 356 4 c 1
 356 -55 l 1
 262 -73 l 1
 262 3 l 1
 166 18 86 85 55 180 c 1
 156 196 l 1
 176 139 218 108 262 98 c 1
 262 314 l 1
 177 343 95 396 95 487 c 0
 95 597 186 647 262 659 c 1
 262 716 l 1
 356 733 l 1
 356 664 l 1
 429 658 539 630 539 513 c 0
 539 506 539 498 536 477 c 1
 440 458 l 1
 447 484 446 503 446 507 c 0
 446 545 404 567 356 573 c 1
198 487 m 0
 198 460 218 439 262 419 c 1
 262 566 l 1
 212 550 198 512 198 487 c 0
439 196 m 0
 439 243 403 265 356 283 c 1
 356 102 l 1
 393 114 439 141 439 196 c 0
EndSplineSet
EndChar
StartChar: percent
Encoding: 37 37 96
Width: 754
Flags: MW
HStem: -7 94<491 519 491 545.5> 0 21G<123 225 123 123> 191 95<491 519> 384 94<194 222.5 194 248.5> 582 95<194 222.5>
VStem: 62 95<516 544 516 570.5> 260 95<516 544> 359 94<125 153 125 179.5> 557 94<125 153>
LayerCount: 2
Back
Fore
SplineSet
208 384 m 0xbf80
 128 384 62 449 62 530 c 0
 62 611 128 677 208 677 c 0
 289 677 355 611 355 530 c 0
 355 449 289 384 208 384 c 0xbf80
208 582 m 0
 180 582 157 558 157 530 c 0
 157 502 180 478 208 478 c 0
 237 478 260 502 260 530 c 0
 260 558 237 582 208 582 c 0
505 -7 m 0
 424 -7 359 58 359 139 c 0
 359 220 424 286 505 286 c 0
 586 286 651 220 651 139 c 0
 651 58 586 -7 505 -7 c 0
505 191 m 0
 477 191 453 167 453 139 c 0
 453 111 477 87 505 87 c 0
 533 87 557 111 557 139 c 0
 557 167 533 191 505 191 c 0
493 672 m 1
 595 672 l 1
 225 0 l 1
 123 0 l 1x7f80
 493 672 l 1
EndSplineSet
EndChar
StartChar: ampersand
Encoding: 38 38 100
Width: 688
Flags: MW
HStem: -9 21G<530 530> -4 95<245.5 284.5 245.5 295> 579 94<282 311.5>
VStem: 61 94<154 216.5 154 239> 140 95<506 537.5 506 561> 359 94<510.5 537.5>
LayerCount: 2
Back
Fore
SplineSet
503 170 m 1x6c
 602 51 l 1
 530 -9 l 1xac
 450 86 l 1
 398 24 322 -4 268 -4 c 0
 169 -4 61 70 61 187 c 0x74
 61 291 127 345 196 385 c 1
 169 419 140 468 140 521 c 0
 140 601 215 673 296 673 c 0
 377 673 453 600 453 524 c 0
 453 430 395 392 344 359 c 1
 434 252 l 1
 444 282 453 321 464 376 c 1
 542 286 l 1
 529 236 516 198 503 170 c 1x6c
235 521 m 0
 235 491 260 455 282 430 c 1
 356 471 359 497 359 524 c 0
 359 551 327 579 296 579 c 0
 268 579 235 554 235 521 c 0
268 91 m 0x74
 301 91 353 115 387 160 c 1
 261 312 l 1
 206 282 155 246 155 187 c 0
 155 121 223 91 268 91 c 0x74
EndSplineSet
EndChar
StartChar: quotesingle
Encoding: 39 39 113
Width: 228
Flags: MW
HStem: 450 21G<60 60> 658 20G<154 154>
VStem: 60 94<467 467 467 660 660 660>
LayerCount: 2
Back
Fore
SplineSet
154 467 m 1
 60 450 l 1
 60 660 l 1
 154 678 l 1
 154 467 l 1
EndSplineSet
EndChar
StartChar: parenleft
Encoding: 40 40 103
Width: 403
Flags: MW
HStem: -116 21G<257 257> 772 20G<280 280>
VStem: 58 95<275.5 414 275.5 423>
LayerCount: 2
Back
Fore
SplineSet
322 -48 m 1
 257 -116 l 1
 129 6 58 197 58 343 c 0
 58 503 143 678 280 792 c 1
 337 718 l 1
 232 627 153 485 153 343 c 0
 153 208 225 45 322 -48 c 1
EndSplineSet
EndChar
StartChar: parenright
Encoding: 41 41 102
Width: 403
Flags: MW
HStem: -116 21G<112 112> 772 20G<135 135>
VStem: 239 95<262 400.5>
LayerCount: 2
Back
Fore
SplineSet
70 724 m 1
 135 792 l 1
 263 670 334 479 334 333 c 0
 334 173 249 -2 112 -116 c 1
 55 -42 l 1
 160 49 239 191 239 333 c 0
 239 468 167 631 70 724 c 1
EndSplineSet
EndChar
StartChar: asterisk
Encoding: 42 42 105
Width: 443
Flags: MW
HStem: 404 21G<169 169 249 249> 653 20G<162 257 257 257>
VStem: 162 95<605 673 605 673>
LayerCount: 2
Back
Fore
SplineSet
288 514 m 1
 327 460 l 1
 249 404 l 1
 209 459 l 1
 169 404 l 1
 92 460 l 1
 132 514 l 1
 67 535 l 1
 97 626 l 1
 162 605 l 1
 162 673 l 1
 257 673 l 1
 257 605 l 1
 322 626 l 1
 351 534 l 1
 288 514 l 1
EndSplineSet
EndChar
StartChar: plus
Encoding: 43 43 104
Width: 467
Flags: MW
HStem: 73 21G<176 176> 204 94<61 176 61 176 45 176 270 384> 406 20G<270 270>
VStem: 176 94<89 204 89 204 89 204 298 407 407 407>
LayerCount: 2
Back
Fore
SplineSet
402 298 m 1
 384 204 l 1
 270 204 l 1
 270 89 l 1
 176 73 l 1
 176 204 l 1
 45 204 l 1
 61 298 l 1
 176 298 l 1
 176 407 l 1
 270 426 l 1
 270 298 l 1
 402 298 l 1
EndSplineSet
EndChar
StartChar: comma
Encoding: 44 44 72
Width: 343
Flags: MW
HStem: -121 21G<156 156> 105 20G<164 164>
LayerCount: 2
Back
Fore
SplineSet
164 125 m 1
 263 69 l 1
 156 -121 l 1
 71 -73 l 1
 120 14 l 1
 78 37 l 1
 164 125 l 1
EndSplineSet
EndChar
StartChar: hyphen
Encoding: 45 45 112
Width: 468
Flags: MW
HStem: 203 94<77 372 60 390>
LayerCount: 2
Back
Fore
SplineSet
372 203 m 1
 60 203 l 1
 77 297 l 1
 390 297 l 1
 372 203 l 1
EndSplineSet
EndChar
StartChar: period
Encoding: 46 46 107
Width: 248
Flags: MW
HStem: -4 21G<54 54> 113 20G<181 181>
LayerCount: 2
Back
Fore
SplineSet
181 133 m 1
 169 12 l 1
 54 -4 l 1
 68 118 l 1
 181 133 l 1
EndSplineSet
EndChar
StartChar: zero
Encoding: 48 48 54
Width: 640
Flags: MW
HStem: -3 96<256.5 337.5 256.5 364.5> 574 95<275 355.5>
VStem: 67 94<260 388.5 260 410> 452 93<277 406.5>
LayerCount: 2
Back
Fore
SplineSet
296 -3 m 0
 162 -3 67 147 67 317 c 0
 67 503 177 669 317 669 c 0
 451 669 545 520 545 348 c 0
 545 160 433 -3 296 -3 c 0
317 574 m 0
 233 574 161 458 161 319 c 0
 161 201 217 93 296 93 c 0
 379 93 452 208 452 346 c 0
 452 467 394 574 317 574 c 0
EndSplineSet
EndChar
StartChar: one
Encoding: 49 49 55
Width: 440
Flags: MW
HStem: 0 95<79 178 272 349 63 178> 674 20G<282 282>
VStem: 181 96
LayerCount: 2
Back
Fore
SplineSet
272 95 m 1
 366 95 l 1
 349 0 l 1
 63 0 l 1
 79 95 l 1
 178 95 l 1
 185 479 l 1
 109 411 l 1
 45 481 l 1
 282 694 l 1
 272 95 l 1
EndSplineSet
EndChar
StartChar: two
Encoding: 50 50 56
Width: 550
Flags: MW
HStem: 0 95<159 456> 564 94<227.5 286>
VStem: 365 95<464 515.5>
LayerCount: 2
Back
Fore
SplineSet
159 95 m 1
 473 95 l 1
 456 0 l 1
 61 0 l 1
 61 47 l 2
 61 200 119 256 228 330 c 0
 324 395 365 441 365 487 c 0
 365 544 306 564 266 564 c 0
 189 564 127 475 119 461 c 1
 53 537 l 1
 81 574 157 658 266 658 c 0
 415 658 460 556 460 487 c 0
 460 386 370 310 280 251 c 0
 209 204 169 169 159 95 c 1
EndSplineSet
EndChar
StartChar: three
Encoding: 51 51 57
Width: 575
Flags: MW
HStem: -4 95<246 274.5 246 315> 320 93<202 254> 572 95<240 301.5>
VStem: 373 97<484 524> 388 96<150.5 246 130.5 250.5>
LayerCount: 2
Back
Fore
SplineSet
470 509 m 0xf0
 470 447 429 403 386 374 c 1
 441 339 484 285 484 207 c 0
 484 54 356 -4 274 -4 c 0
 187 -4 93 46 58 156 c 1
 149 194 l 1
 167 128 218 91 274 91 c 0
 275 91 388 94 388 207 c 0xe8
 388 294 302 320 206 320 c 1
 202 413 l 1
 310 419 373 459 373 509 c 0
 373 539 334 572 269 572 c 0
 211 572 153 520 141 508 c 1
 76 577 l 1
 102 601 178 667 269 667 c 0
 382 667 470 597 470 509 c 0xf0
EndSplineSet
EndChar
StartChar: four
Encoding: 52 52 58
Width: 544
Flags: MW
HStem: -5 21G<314 314> 155 91 696 20G<407 407>
VStem: 314 93<13 13 13 151 246 424 424 424>
LayerCount: 2
Back
Fore
SplineSet
407 13 m 1
 314 -5 l 1
 314 152 l 1
 16 158 l 1
 407 716 l 1
 407 244 l 1
 472 243 l 1
 454 150 l 1
 407 151 l 1
 407 13 l 1
189 246 m 1
 314 246 l 1
 314 424 l 1
 189 246 l 1
EndSplineSet
EndChar
StartChar: five
Encoding: 53 53 59
Width: 588
Flags: MW
HStem: 0 94<245 265 245 335> 392 94<274 321.5> 563 94<204 468 204 204>
VStem: 408 93<259 259>
LayerCount: 2
Back
Fore
SplineSet
265 0 m 0
 211 0 115 28 56 153 c 1
 142 191 l 1
 172 125 225 94 265 94 c 0
 353 93 408 174 408 259 c 0
 409 346 349 392 294 392 c 0
 245 392 195 356 167 312 c 1
 88 337 l 1
 120 657 l 1
 486 657 l 1
 468 563 l 1
 204 563 l 1
 195 464 l 1
 222 477 254 486 294 486 c 0
 424 486 500 370 501 259 c 0
 502 114 405 0 265 0 c 0
EndSplineSet
EndChar
StartChar: six
Encoding: 54 54 60
Width: 572
Flags: MW
HStem: -5 94<249.5 295 249.5 306.5> 354 93<270.5 298.5 270.5 300.5> 656 20G<359 359>
VStem: 58 93<181 255 181 342.5> 392 92<178.5 293.5>
LayerCount: 2
Back
Fore
SplineSet
359 676 m 1
 389 587 l 1
 315 557 241 498 200 434 c 1
 226 443 253 447 288 447 c 0
 309 447 484 441 484 241 c 0
 484 36 334 -5 279 -5 c 0
 126 -5 58 110 58 246 c 0
 58 439 174 597 359 676 c 1
153 300 m 1
 151 282 151 264 151 246 c 0
 151 116 220 89 279 89 c 0
 311 89 392 116 392 241 c 0
 392 346 313 354 288 354 c 0
 219 354 173 318 153 300 c 1
EndSplineSet
EndChar
StartChar: seven
Encoding: 55 55 61
Width: 527
Flags: MW
HStem: -8 21G<175 175> 565 94<73 361 73 73>
LayerCount: 2
Back
Fore
SplineSet
175 -8 m 1
 93 35 l 1
 361 565 l 1
 73 565 l 1
 57 659 l 1
 513 659 l 1
 175 -8 l 1
EndSplineSet
EndChar
StartChar: eight
Encoding: 56 56 62
Width: 573
Flags: MW
HStem: -3 96<241 299.5 241 333.5> 573 96<254 307.5>
VStem: 63 95<154.5 186> 93 65 93 94<471.5 513 471.5 544.5> 372 95<500 527> 388 95<158 223>
LayerCount: 2
Back
Fore
SplineSet
273 -3 m 0xe2
 150 -3 63 77 63 186 c 0xe2
 64 272 114 325 164 357 c 1
 122 385 93 422 93 487 c 0
 93 602 176 669 283 669 c 0
 391 669 467 599 467 500 c 0xd4
 465 433 431 392 389 364 c 1
 450 323 483 265 483 195 c 0
 483 82 394 -3 273 -3 c 0xe2
272 310 m 1
 215 286 158 254 158 180 c 0
 158 129 209 93 273 93 c 0
 326 93 388 124 388 192 c 0
 388 254 326 292 272 310 c 1
286 411 m 1
 344 437 372 459 372 507 c 0
 372 547 332 573 283 573 c 0
 225 573 187 536 187 490 c 0xcc
 187 453 223 430 286 411 c 1
EndSplineSet
EndChar
StartChar: nine
Encoding: 57 57 63
Width: 572
Flags: MW
HStem: -9 21G<183 183> 217 94<243 271> 576 93<247.5 292.5>
VStem: 58 93<371.5 486 371.5 498> 392 92<410 483.5>
LayerCount: 2
Back
Fore
SplineSet
183 -9 m 1
 153 78 l 1
 235 111 303 167 342 231 c 1
 315 222 289 217 253 217 c 0
 233 217 58 224 58 424 c 0
 58 572 153 669 265 669 c 0
 417 669 484 557 484 419 c 0
 484 198 328 45 183 -9 c 1
388 364 m 1
 391 382 392 401 392 419 c 0
 392 548 322 576 263 576 c 0
 232 576 151 548 151 424 c 0
 151 319 230 311 253 311 c 0
 322 311 369 346 388 364 c 1
EndSplineSet
EndChar
StartChar: colon
Encoding: 58 58 71
Width: 276
Flags: MW
HStem: -4 21G<55 55> 434 20G<208 208>
LayerCount: 2
Back
Fore
SplineSet
208 454 m 1
 194 332 l 1
 80 317 l 1
 93 439 l 1
 208 454 l 1
181 133 m 1
 170 12 l 1
 55 -4 l 1
 69 118 l 1
 181 133 l 1
EndSplineSet
EndChar
StartChar: semicolon
Encoding: 59 59 111
Width: 358
Flags: MW
HStem: -121 21G<156 156> 436 20G<272 272>
LayerCount: 2
Back
Fore
SplineSet
272 456 m 1
 259 334 l 1
 144 319 l 1
 158 441 l 1
 272 456 l 1
163 124 m 1
 263 68 l 1
 156 -121 l 1
 71 -73 l 1
 121 14 l 1
 78 37 l 1
 163 124 l 1
EndSplineSet
EndChar
StartChar: less
Encoding: 60 60 109
Width: 594
Flags: MW
HStem: -11 21G<438 438> 493 20G<456 456>
LayerCount: 2
Back
Fore
SplineSet
438 -11 m 1
 50 251 l 1
 456 513 l 1
 506 433 l 1
 221 249 l 1
 491 68 l 1
 438 -11 l 1
EndSplineSet
EndChar
StartChar: equal
Encoding: 61 61 90
Width: 531
Flags: MW
HStem: 113 93<84 426 67 443> 292 94<84 426 67 443>
LayerCount: 2
Back
Fore
SplineSet
426 292 m 1
 67 292 l 1
 84 386 l 1
 443 386 l 1
 426 292 l 1
426 113 m 1
 67 113 l 1
 84 206 l 1
 443 206 l 1
 426 113 l 1
EndSplineSet
EndChar
StartChar: greater
Encoding: 62 62 65
Width: 594
Flags: MW
HStem: -10 21G<114 114> 492 20G<133 133>
LayerCount: 2
Back
Fore
SplineSet
114 -10 m 1
 64 69 l 1
 348 252 l 1
 79 435 l 1
 133 512 l 1
 520 251 l 1
 114 -10 l 1
EndSplineSet
EndChar
StartChar: question
Encoding: 63 63 108
Width: 568
Flags: MW
HStem: -5 21G<137 137> 599 95<226 310.5>
VStem: 386 94<460.5 516.5>
LayerCount: 2
Back
Fore
SplineSet
244 124 m 1
 234 12 l 1
 137 -5 l 1
 146 107 l 1
 244 124 l 1
266 694 m 0
 400 694 480 614 480 489 c 0
 480 390 411 333 363 290 c 2
 206 149 l 1
 158 235 l 1
 301 362 l 2
 340 396 386 432 386 489 c 0
 386 544 352 599 269 599 c 0
 183 599 127 507 120 495 c 1
 49 566 l 1
 74 603 157 694 266 694 c 0
EndSplineSet
EndChar
StartChar: at
Encoding: 64 64 85
Width: 854
Flags: MW
HStem: -86 93<363 456.5 363 485.5> 85 95<582 608 563 635.5> 98 94<340 368 340 370> 341 94<375 407> 512 95<359.5 500.5>
VStem: 71 95<172 337.5 172 353.5> 222 94<222.5 263.5 222.5 289> 656 94<254 339.5>
LayerCount: 2
Back
Fore
SplineSet
416 7 m 0xdf
 497 7 548 42 580 61 c 1
 672 18 l 1
 660 7 555 -86 416 -86 c 0
 227 -86 71 66 71 252 c 0
 71 455 223 607 424 607 c 0
 607 607 750 467 750 282 c 0
 750 174 689 85 582 85 c 0xdf
 534 86 480 111 451 146 c 1
 424 118 391 98 349 98 c 0
 274 98 222 149 222 238 c 0
 222 340 297 435 399 435 c 0
 436 435 467 431 513 397 c 1
 457 321 l 1
 428 341 415 341 399 341 c 0
 351 341 316 289 316 238 c 0
 316 207 331 192 349 192 c 0xbf
 387 192 427 272 441 304 c 1
 527 272 l 1
 519 245 519 238 519 229 c 0
 519 202 543 180 583 180 c 0
 633 180 656 226 656 282 c 0
 656 397 577 512 424 512 c 0
 295 512 166 423 166 252 c 0
 166 92 310 7 416 7 c 0xdf
EndSplineSet
EndChar
StartChar: A
Encoding: 65 65 1
Width: 649
Flags: MW
HStem: -12 21G<501 501> 664 20G<375 375>
LayerCount: 2
Back
Fore
SplineSet
375 684 m 1
 585 45 l 1
 501 -12 l 1
 417 240 l 1
 204 195 l 1
 129 -8 l 1
 42 36 l 1
 93 171 l 1
 70 168 l 1
 53 264 l 1
 133 279 l 1
 277 666 l 1
 375 684 l 1
244 303 m 1
 387 334 l 1
 325 518 l 1
 244 303 l 1
EndSplineSet
EndChar
StartChar: B
Encoding: 66 66 28
Width: 628
Flags: MW
HStem: 0 96<61 158> 309 96<158 265 158 265 265 296 158 306> 584 97<158 158 158 281>
VStem: 61 97<96 309 96 405 405 584> 408 97<468 514> 464 41 464 97<163 252.5 116 253>
LayerCount: 2
Back
Fore
SplineSet
61 0 m 1xf2
 61 681 l 1
 281 681 l 2
 421 681 505 610 505 493 c 0xf4
 505 443 479 403 438 374 c 1
 498 355 561 293 561 212 c 0
 561 20 270 0 147 0 c 2
 61 0 l 1xf2
158 309 m 1
 158 96 l 1
 249 95 464 114 464 212 c 0
 464 294 364 309 306 309 c 2
 158 309 l 1
158 584 m 1
 158 405 l 1
 265 405 l 2
 327 405 408 423 408 493 c 0xf8
 408 535 386 584 281 584 c 2
 158 584 l 1
EndSplineSet
EndChar
StartChar: C
Encoding: 67 67 29
Width: 657
Flags: MW
HStem: -1 96<282 374.5 282 387.5> 502 163<460 549 460 549> 585 80 585 96<286.5 366 256.5 370.5>
VStem: 48 95<241 353.5 241 374>
LayerCount: 2
Back
Fore
SplineSet
335 -1 m 0xa8
 179 -1 48 127 48 294 c 0
 48 454 167 681 346 681 c 0x98
 386 681 426 667 460 651 c 1
 460 665 l 1
 549 665 l 1
 549 502 l 1
 460 502 l 1xc8
 460 539 l 1
 438 561 400 585 341 585 c 0
 232 585 143 411 143 296 c 0
 143 186 229 95 335 95 c 0
 414 95 482 140 523 221 c 1
 595 149 l 1
 538 56 440 -1 335 -1 c 0xa8
EndSplineSet
EndChar
StartChar: D
Encoding: 68 68 30
Width: 642
Flags: MW
HStem: -14 97<206 240.5 206 327.5> 583 97<158 158>
VStem: 61 97<86 583 86 680> 468 97<261.5 359>
LayerCount: 2
Back
Fore
SplineSet
61 7 m 1
 61 680 l 1
 108 680 l 2
 218 680 307 656 365 630 c 0
 488 567 565 451 565 304 c 0
 565 101 439 -14 216 -14 c 0
 180 -14 112 -7 61 7 c 1
386 123 m 0
 441 158 468 219 468 304 c 0
 468 414 417 496 322 541 c 0
 264 566 206 581 158 583 c 1
 158 86 l 1
 174 84 196 83 216 83 c 0
 265 83 335 89 386 123 c 0
EndSplineSet
EndChar
StartChar: E
Encoding: 69 69 31
Width: 637
Flags: MW
HStem: 0 99<160 535> 304 98<160 497 160 526> 582 99<160 543 160 160>
VStem: 61 99<99 99 99 304 402 582>
LayerCount: 2
Back
Fore
SplineSet
160 99 m 1
 570 99 l 1
 535 0 l 1
 61 0 l 1
 61 681 l 1
 560 681 l 1
 543 582 l 1
 160 582 l 1
 160 402 l 1
 526 402 l 1
 497 304 l 1
 160 304 l 1
 160 99 l 1
EndSplineSet
EndChar
StartChar: F
Encoding: 70 70 52
Width: 531
Flags: MW
HStem: -5 21G<55 55> 295 100<154 457 154 474> 582 99<154 503 154 154>
VStem: 55 99<12 295 395 582>
LayerCount: 2
Back
Fore
SplineSet
503 582 m 1
 154 582 l 1
 154 395 l 1
 474 395 l 1
 457 295 l 1
 154 295 l 1
 154 12 l 1
 55 -5 l 1
 55 681 l 1
 521 681 l 1
 503 582 l 1
EndSplineSet
EndChar
StartChar: G
Encoding: 71 71 32
Width: 770
Flags: MW
HStem: -2 97<290 403.5 290 458.5> 220 96 586 96<297 425.5>
VStem: 58 97<280.5 382.5 280.5 420.5>
LayerCount: 2
Back
Fore
SplineSet
686 299 m 1
 686 197 l 1
 673 202 660 207 645 210 c 1
 626 142 561 -2 356 -2 c 0
 181 -2 58 149 58 341 c 0
 58 500 185 682 374 682 c 0
 527 682 626 587 660 449 c 1
 565 430 l 1
 541 524 477 586 374 586 c 0
 220 586 155 424 155 341 c 0
 155 220 224 95 356 95 c 0
 451 95 517 141 547 220 c 1
 495 218 429 202 381 182 c 1
 381 288 l 1
 437 306 501 316 557 316 c 0
 596 316 641 310 686 299 c 1
EndSplineSet
EndChar
StartChar: H
Encoding: 72 72 33
Width: 709
Flags: MW
HStem: -9 21G<62 62 525 525> 666 20G<161 161 624 624>
VStem: 62 99<25 270 370 668 668 668> 525 99<25 322 322 322 422 668 668 668>
LayerCount: 2
Back
Fore
SplineSet
525 668 m 1
 624 686 l 1
 624 25 l 1
 525 -9 l 1
 525 322 l 1
 161 270 l 1
 161 25 l 1
 62 -9 l 1
 62 668 l 1
 161 686 l 1
 161 370 l 1
 525 422 l 1
 525 668 l 1
EndSplineSet
EndChar
StartChar: I
Encoding: 73 73 34
Width: 463
Flags: MW
HStem: 0 99<65 177 276 382 48 177> 582 99<65 177 48 400 276 382 276 276>
VStem: 177 99<99 582 99 582>
LayerCount: 2
Back
Fore
SplineSet
382 582 m 1
 276 582 l 1
 276 99 l 1
 400 99 l 1
 382 0 l 1
 48 0 l 1
 65 99 l 1
 177 99 l 1
 177 582 l 1
 48 582 l 1
 65 681 l 1
 400 681 l 1
 382 582 l 1
EndSplineSet
EndChar
StartChar: J
Encoding: 74 74 35
Width: 495
Flags: MW
HStem: 1 94<204.5 256.5 204.5 285> 579 100<173 317 173 463 416 463 416 416>
VStem: 45 99<174 226 226 226> 317 99<174 579>
LayerCount: 2
Back
Fore
SplineSet
173 679 m 1
 463 679 l 1
 463 579 l 1
 416 579 l 1
 416 174 l 2
 416 72 340 1 230 1 c 0
 122 1 45 75 45 174 c 2
 45 226 l 1
 144 244 l 1
 144 174 l 2
 144 129 179 95 230 95 c 0
 283 95 317 129 317 174 c 2
 317 579 l 1
 173 579 l 1
 173 679 l 1
EndSplineSet
EndChar
StartChar: K
Encoding: 75 75 36
Width: 603
Flags: MW
HStem: -9 21G 669 20G<460 460>
VStem: 61 96<12 242 435 668 668 668>
LayerCount: 2
Back
Fore
SplineSet
547 68 m 1
 487 -9 l 1
 157 242 l 1
 157 12 l 1
 61 -5 l 1
 61 668 l 1
 157 686 l 1
 157 435 l 1
 460 689 l 1
 523 616 l 1
 191 337 l 1
 547 68 l 1
EndSplineSet
EndChar
StartChar: L
Encoding: 76 76 37
Width: 513
Flags: MW
HStem: -2 21G<59 59> 13 103 663 20G<158 158>
VStem: 59 99<104 665 665 665>
LayerCount: 2
Back
Fore
SplineSet
59 -2 m 1
 59 665 l 1
 158 683 l 1
 158 104 l 1
 475 128 l 1
 480 29 l 1
 59 -2 l 1
EndSplineSet
EndChar
StartChar: M
Encoding: 77 77 38
Width: 891
Flags: MW
HStem: -6 21G<45 45> 665 20G<271 271 669 669>
LayerCount: 2
Back
Fore
SplineSet
237 446 m 1
 145 12 l 1
 45 -6 l 1
 186 669 l 1
 271 685 l 1
 418 166 l 1
 580 670 l 1
 669 685 l 1
 815 13 l 1
 716 -4 l 1
 616 467 l 1
 470 11 l 1
 365 -3 l 1
 237 446 l 1
EndSplineSet
EndChar
StartChar: N
Encoding: 78 78 39
Width: 641
Flags: MW
HStem: -4 21G<62 62> 666 20G<559 559>
VStem: 61 97 463 96<184 668 668 668>
LayerCount: 2
Back
Fore
SplineSet
463 668 m 1
 559 686 l 1
 559 16 l 1
 465 -3 l 1
 158 489 l 1
 158 15 l 1
 62 -4 l 1
 61 660 l 1
 149 685 l 1
 463 184 l 1
 463 668 l 1
EndSplineSet
EndChar
StartChar: P
Encoding: 80 80 41
Width: 571
Flags: MW
HStem: -5 21G<60 60> 223 98<158 158> 580 99<158 257.5 171.5 178>
VStem: 60 98<12 223 321 580> 427 99<422 490.5>
LayerCount: 2
Back
Fore
SplineSet
158 223 m 1
 158 12 l 1
 60 -5 l 1
 60 673 l 1
 90 675 155 679 188 679 c 0
 327 679 526 650 526 463 c 0
 526 298 327 233 158 223 c 1
158 580 m 1
 158 321 l 1
 324 334 427 387 427 457 c 0
 427 524 375 580 178 580 c 2
 158 580 l 1
EndSplineSet
EndChar
StartChar: Q
Encoding: 81 81 42
Width: 747
Flags: MW
HStem: -42 21G<638 638> -1 96<283 349 283 364.5> 582 97<313.5 427.5>
VStem: 50 103<252.5 387.5 252.5 413> 563 102<322 414.5>
LayerCount: 2
Back
Fore
SplineSet
572 114 m 1
 681 42 l 1
 638 -42 l 1
 498 48 l 1
 449 17 393 -1 336 -1 c 0
 172 -1 50 141 50 314 c 0
 50 512 203 679 379 679 c 0
 544 679 665 536 665 364 c 0
 665 266 633 181 572 114 c 1
489 170 m 1
 532 218 563 286 563 358 c 0
 563 471 483 582 372 582 c 0
 255 582 153 461 153 314 c 0
 153 191 230 95 336 95 c 0
 362 95 383 100 407 111 c 1
 305 175 l 1
 395 230 l 1
 489 170 l 1
EndSplineSet
EndChar
StartChar: R
Encoding: 82 82 43
Width: 620
Flags: MW
HStem: -13 21G<484 484> 232 90<160 240.5> 587 100<160 256 160 256>
VStem: 61 99<322 587 322 678 322 678> 435 98<429 495>
LayerCount: 2
Back
Fore
SplineSet
160 587 m 1
 160 322 l 1
 324 331 435 387 435 461 c 0
 435 529 378 587 175 587 c 2
 160 587 l 1
281 224 m 0
 269 230 249 232 232 232 c 0
 215 232 185 229 159 225 c 1
 159 12 l 1
 61 -5 l 1
 61 678 l 1
 99 683 153 686 185 687 c 0
 327 687 533 657 533 467 c 0
 533 391 473 315 385 273 c 1
 435 233 501 163 560 52 c 1
 484 -13 l 1
 403 143 325 202 281 224 c 0
EndSplineSet
EndChar
StartChar: S
Encoding: 83 83 44
Width: 625
Flags: MW
HStem: -1 96<277 343.5 277 359.5> 588 93<277.5 352.5>
VStem: 89 106<480.5 519.5 480.5 571.5> 442 106<167.5 214>
LayerCount: 2
Back
Fore
SplineSet
302 308 m 0
 203 334 89 391 89 496 c 0
 89 647 225 681 330 681 c 0
 424 681 545 646 545 525 c 0
 545 518 545 511 541 488 c 1
 442 470 l 1
 449 484 450 508 450 513 c 0
 450 572 375 588 330 588 c 0
 217 588 195 537 195 502 c 0
 195 459 240 430 327 406 c 0
 475 365 548 298 548 200 c 0
 548 63 412 -1 307 -1 c 0
 187 -1 85 73 48 184 c 1
 152 200 l 1
 178 128 248 95 306 95 c 0
 381 95 442 136 442 199 c 0
 442 229 433 273 302 308 c 0
EndSplineSet
EndChar
StartChar: T
Encoding: 84 84 45
Width: 548
Flags: MW
HStem: -5 21G<208 208> 582 99<9 208 9 522 308 308 308 522>
VStem: 208 100<12 582 12 582 12 582>
LayerCount: 2
Back
Fore
SplineSet
208 -5 m 1
 208 582 l 1
 9 582 l 1
 9 681 l 1
 522 681 l 1
 522 582 l 1
 308 582 l 1
 308 12 l 1
 208 -5 l 1
EndSplineSet
EndChar
StartChar: V
Encoding: 86 86 47
Width: 566
Flags: MW
HStem: -3 21G<212 212> 668 20G<454 454>
LayerCount: 2
Back
Fore
SplineSet
261 174 m 1
 454 688 l 1
 546 650 l 1
 305 12 l 1
 212 -3 l 1
 2 652 l 1
 96 687 l 1
 261 174 l 1
EndSplineSet
EndChar
StartChar: W
Encoding: 87 87 48
Width: 904
Flags: MW
HStem: -3 21G<204 204 552 552> 666 20G<871 871>
LayerCount: 2
Back
Fore
SplineSet
871 686 m 1
 642 12 l 1
 552 -3 l 1
 431 474 l 1
 293 12 l 1
 204 -3 l 1
 8 667 l 1
 104 685 l 1
 247 198 l 1
 294 353 343 517 388 669 c 1
 477 685 l 1
 600 191 l 1
 762 668 l 1
 871 686 l 1
EndSplineSet
EndChar
StartChar: X
Encoding: 88 88 49
Width: 672
Flags: MW
HStem: -13 21G<115 115 504 504> 674 20G<137 137 513 513>
LayerCount: 2
Back
Fore
SplineSet
584 43 m 1
 504 -13 l 1
 316 261 l 1
 115 -13 l 1
 35 44 l 1
 257 346 l 1
 56 639 l 1
 137 694 l 1
 318 429 l 1
 513 694 l 1
 592 637 l 1
 376 344 l 1
 584 43 l 1
EndSplineSet
EndChar
StartChar: bracketleft
Encoding: 91 91 77
Width: 341
Flags: MW
HStem: -113 95<152 252 58 270> 683 95<152 266 152 152>
VStem: 58 94<-18 683 -18 778>
LayerCount: 2
Back
Fore
SplineSet
252 -113 m 1
 58 -113 l 1
 58 778 l 1
 283 778 l 1
 266 683 l 1
 152 683 l 1
 152 -18 l 1
 270 -18 l 1
 252 -113 l 1
EndSplineSet
EndChar
StartChar: backslash
Encoding: 92 92 81
Width: 518
Flags: MW
HStem: 0 21G<380 488 380 380> 656 20G<10 117 117 117>
LayerCount: 2
Back
Fore
SplineSet
117 676 m 1
 488 0 l 1
 380 0 l 1
 10 676 l 1
 117 676 l 1
EndSplineSet
EndChar
StartChar: bracketright
Encoding: 93 93 76
Width: 341
Flags: MW
HStem: -113 95<65 179 65 274 48 179> 683 95<79 179 62 274>
VStem: 179 95<-18 683 683 683>
LayerCount: 2
Back
Fore
SplineSet
79 778 m 1
 274 778 l 1
 274 -113 l 1
 48 -113 l 1
 65 -18 l 1
 179 -18 l 1
 179 683 l 1
 62 683 l 1
 79 778 l 1
EndSplineSet
EndChar
StartChar: asciicircum
Encoding: 94 94 127
Width: 526
Flags: MW
HStem: 644 21G<151 151> 834 20G<262 262>
LayerCount: 2
Back
Fore
SplineSet
151 644 m 1
 92 718 l 1
 262 854 l 1
 410 714 l 1
 346 645 l 1
 256 726 l 1
 151 644 l 1
EndSplineSet
EndChar
StartChar: underscore
Encoding: 95 95 95
Width: 502
Flags: MW
HStem: -49 94<2 478 -14 495>
LayerCount: 2
Back
Fore
SplineSet
478 -49 m 1
 -14 -49 l 1
 2 45 l 1
 495 45 l 1
 478 -49 l 1
EndSplineSet
EndChar
StartChar: grave
Encoding: 96 96 128
Width: 526
Flags: MW
HStem: 654 21G<290 290> 850 20G<226 226>
LayerCount: 2
Back
Fore
SplineSet
371 703 m 1
 290 654 l 1
 129 816 l 1
 226 870 l 1
 371 703 l 1
EndSplineSet
EndChar
StartChar: b
Encoding: 98 98 4
Width: 554
Flags: MW
HStem: -5 21G<158 158> 1 94<243 303 235.5 370> 395 96<280 332.5> 659 20G<158 158>
VStem: 62 96<12 16 112 287 448 661 661 661> 389 94<240 294.5>
LayerCount: 2
Back
Fore
SplineSet
311 491 m 0xbc
 427 491 483 372 483 266 c 0
 483 214 479 1 261 1 c 0x7c
 225 1 187 8 158 16 c 1
 158 -5 l 1
 62 12 l 1
 62 661 l 1
 158 679 l 1
 158 448 l 1
 197 476 249 491 311 491 c 0xbc
254 95 m 0
 352 95 389 169 389 266 c 0
 389 323 367 395 298 395 c 0
 215 395 158 346 158 287 c 2
 158 112 l 1
 179 105 217 95 254 95 c 0
EndSplineSet
EndChar
StartChar: d
Encoding: 100 100 6
Width: 552
Flags: MW
HStem: -5 21G<356 356> 5 90<192 254.5> 402 94<213.5 285 173 286> 664 20G<467 467>
VStem: 48 96<205 265 205 272> 367 92
LayerCount: 2
Back
Fore
SplineSet
369 667 m 1x7c
 467 684 l 1
 452 12 l 1
 356 -5 l 1xbc
 356 47 l 1
 322 23 283 5 226 5 c 0
 104 5 48 118 48 228 c 0
 48 316 76 496 270 496 c 0
 300 496 334 488 365 479 c 1
 369 667 l 1x7c
359 171 m 2
 364 376 l 1
 344 386 307 402 265 402 c 0
 162 402 144 299 144 231 c 0
 144 179 158 95 226 95 c 0x7c
 305 95 358 149 359 171 c 2
EndSplineSet
EndChar
StartChar: e
Encoding: 101 101 7
Width: 553
Flags: MW
HStem: 0 92<266.5 311.5 266.5 323> 410 92<246 304>
VStem: 48 92<247 290.5 247 319.5>
LayerCount: 2
Back
Fore
SplineSet
291 0 m 0
 156 0 48 113 48 251 c 0
 48 388 155 502 291 502 c 0
 382 502 460 426 486 335 c 1
 168 158 l 1
 195 122 242 92 291 92 c 0
 332 92 374 115 413 156 c 1
 480 93 l 1
 423 33 355 0 291 0 c 0
140 247 m 1
 365 375 l 1
 346 396 317 410 291 410 c 0
 201 410 140 334 140 247 c 1
EndSplineSet
EndChar
StartChar: f
Encoding: 102 102 8
Width: 358
Flags: MW
HStem: -5 21G<84 84> 410 92<18 84 2 85 186 288> 582 95<220 308>
VStem: 84 96<12 410 12 410 12 410>
LayerCount: 2
Back
Fore
SplineSet
347 673 m 1
 308 582 l 1
 216 584 189 561 186 502 c 1
 309 502 l 1
 288 410 l 1
 180 410 l 1
 180 12 l 1
 84 -5 l 1
 84 410 l 1
 2 410 l 1
 18 502 l 1
 85 502 l 1
 91 630 155 677 285 677 c 0
 296 677 307 677 347 673 c 1
EndSplineSet
EndChar
StartChar: g
Encoding: 103 103 9
Width: 548
Flags: MW
HStem: -168 96<226 294 226 310.5> 10 94<208 246 208 270.5> 406 95<247 302.5 214 304> 492 20G<464 464>
VStem: 48 90<216 287.5 216 309> 362 96
LayerCount: 2
Back
Fore
SplineSet
464 512 m 1xdc
 453 39 l 2
 450 -94 375 -168 246 -168 c 0
 202 -168 145 -159 105 -150 c 1
 125 -56 l 1
 157 -64 206 -72 246 -72 c 0
 342 -72 355 9 356 42 c 1
 326 19 290 10 251 10 c 0
 135 10 48 108 48 245 c 0
 48 373 142 501 286 501 c 0xec
 319 501 342 497 366 487 c 1
 366 497 l 1
 464 512 l 1xdc
362 386 m 1xdc
 344 397 317 406 291 406 c 0xec
 203 406 138 332 138 243 c 0
 138 189 170 104 246 104 c 0
 299 105 362 136 362 266 c 2
 362 386 l 1xdc
EndSplineSet
EndChar
StartChar: h
Encoding: 104 104 3
Width: 530
Flags: MW
HStem: -5 21G<61 61 361 361> 407 98<284.5 327.5> 659 20G<158 158>
VStem: 61 97<12 201 409 661 661 661> 365 94<123 230.5>
LayerCount: 2
Back
Fore
SplineSet
158 201 m 2
 158 12 l 1
 61 -5 l 1
 61 661 l 1
 158 679 l 1
 158 409 l 1
 198 463 254 505 315 505 c 0
 429 505 459 386 459 152 c 0
 459 94 458 28 457 12 c 1
 361 -5 l 1
 362 8 365 85 365 146 c 0
 365 315 352 407 303 407 c 0
 247 407 183 300 169 272 c 0
 160 252 158 228 158 201 c 2
EndSplineSet
EndChar
StartChar: i
Encoding: 105 105 10
Width: 247
Flags: MW
HStem: -5 21G<66 66> 657 20G<170 170>
VStem: 66 99<12 489 489 489>
LayerCount: 2
Back
Fore
SplineSet
66 489 m 1
 165 505 l 1
 165 12 l 1
 66 -5 l 1
 66 489 l 1
170 677 m 1
 162 555 l 1
 64 538 l 1
 73 660 l 1
 170 677 l 1
EndSplineSet
EndChar
StartChar: j
Encoding: 106 106 11
Width: 339
Flags: MW
HStem: -164 92<116.5 145 116.5 180.5> 664 20G<268 268>
VStem: 162 97<499 517>
LayerCount: 2
Back
Fore
SplineSet
268 684 m 1
 258 562 l 1
 160 546 l 1
 168 668 l 1
 268 684 l 1
-50 30 m 1
 46 50 l 1
 61 13 101 -72 132 -72 c 0
 158 -72 168 -31 168 18 c 0
 168 34 166 260 162 499 c 1
 259 517 l 1
 263 275 266 38 266 23 c 0
 266 -52 232 -164 129 -164 c 0
 24 -164 -42 11 -50 30 c 1
EndSplineSet
EndChar
StartChar: k
Encoding: 107 107 12
Width: 520
Flags: MW
HStem: -11 21G<403 403> 659 20G<159 159>
VStem: 62 97<662 679>
LayerCount: 2
Back
Fore
SplineSet
465 484 m 1
 424 430 340 336 292 291 c 1
 478 54 l 1
 403 -11 l 1
 337 87 263 183 219 233 c 1
 160 193 l 1
 161 12 l 1
 63 -5 l 1
 62 662 l 1
 159 679 l 1
 160 300 l 1
 223 354 325 458 388 539 c 1
 465 484 l 1
EndSplineSet
EndChar
StartChar: l
Encoding: 108 108 13
Width: 252
Flags: MW
HStem: -5 21G<74 74> 659 20G<170 170>
VStem: 74 96<12 661 661 661>
LayerCount: 2
Back
Fore
SplineSet
74 661 m 1
 170 679 l 1
 170 12 l 1
 74 -5 l 1
 74 661 l 1
EndSplineSet
EndChar
StartChar: m
Encoding: 109 109 14
Width: 843
Flags: MW
HStem: -5 21G<68 68 366 366 641 641> 420 90<290 316.5 568 591.5>
VStem: 68 96<12 262 417 480 480 480> 366 97<12 269 12 326 12 368.5> 641 97<12 319 12 326 12 368.5>
LayerCount: 2
Back
Fore
SplineSet
172 289 m 0
 165 278 164 262 164 262 c 1
 164 12 l 1
 68 -5 l 1
 68 480 l 1
 164 497 l 1
 164 417 l 1
 210 471 260 510 316 510 c 0
 363 510 414 495 443 432 c 1
 487 479 545 510 591 510 c 0
 657 510 738 477 738 319 c 2
 738 12 l 1
 641 -5 l 1
 641 326 l 2
 641 411 602 420 581 420 c 0
 538 420 463 358 463 269 c 2
 463 12 l 1
 366 -5 l 1
 366 326 l 2
 366 411 327 420 306 420 c 0
 274 420 228 381 172 289 c 0
EndSplineSet
EndChar
StartChar: n
Encoding: 110 110 15
Width: 562
Flags: MW
HStem: -5 21G<62 62 381 381> 406 95<304 332.5> 487 20G<158 158>
VStem: 62 95<13 13 13 489> 381 94<127 127 127 157 127 201>
LayerCount: 2
Back
Fore
SplineSet
381 -5 m 1xd8
 381 157 l 2
 381 245 381 309 370 352 c 0
 362 384 345 406 320 406 c 0xd8
 288 406 247 394 205 319 c 0
 178 266 158 193 158 135 c 2
 157 13 l 1
 62 -5 l 1
 62 489 l 1
 158 507 l 1xb8
 158 408 l 1
 197 464 256 501 322 501 c 0
 395 501 441 463 460 386 c 0
 474 326 474 249 475 127 c 2
 476 15 l 1
 381 -5 l 1xd8
EndSplineSet
EndChar
StartChar: p
Encoding: 112 112 17
Width: 544
Flags: MW
HStem: -180 21G<61 61> 6 97<239.5 304 239.5 334.5> 407 90<305 306 305 324.5> 484 20G<158 158>
VStem: 61 97<-164 22 126 343 458 486 486 486> 383 90<223.5 295.5>
LayerCount: 2
Back
Fore
SplineSet
305 497 m 2xec
 306 497 l 1xec
 421 492 473 373 473 268 c 0
 473 136 414 6 255 6 c 0
 219 6 186 13 158 22 c 1
 158 -164 l 1
 61 -180 l 1
 61 486 l 1
 158 504 l 1xdc
 158 458 l 1
 202 481 241 497 305 497 c 2xec
258 103 m 0
 350 103 383 179 383 268 c 0
 383 323 358 407 291 407 c 0
 221 407 176 366 158 343 c 1
 158 126 l 1
 181 117 221 103 258 103 c 0
EndSplineSet
EndChar
StartChar: q
Encoding: 113 113 18
Width: 549
Flags: MW
HStem: -183 21G<345 345> -9 93<223.5 280.5> 405 92<268.5 328.5> 489 20G<368 368>
VStem: 47 92<176 276.5 176 304> 348 105
LayerCount: 2
Back
Fore
SplineSet
322 497 m 0xec
 336 497 352 496 367 494 c 1
 368 509 l 1xdc
 465 507 l 1
 441 -166 l 1
 345 -183 l 1
 352 14 l 1
 324 -3 303 -9 258 -9 c 0
 137 -9 47 89 47 214 c 0
 47 394 165 497 322 497 c 0xec
358 172 m 2
 366 402 l 1
 350 404 335 405 322 405 c 0
 215 405 139 339 139 214 c 0
 139 138 190 84 257 84 c 0
 316 84 355 116 358 172 c 2
EndSplineSet
EndChar
StartChar: t
Encoding: 116 116 21
Width: 399
Flags: MW
HStem: -5 21G<142 142> 406 96<17 142 17 142 240 365> 640 20G<240 240>
VStem: 142 98<12 406 12 406 12 406 502 644 644 644>
LayerCount: 2
Back
Fore
SplineSet
365 502 m 1
 365 406 l 1
 240 406 l 1
 240 12 l 1
 142 -5 l 1
 142 406 l 1
 17 406 l 1
 17 502 l 1
 142 502 l 1
 142 644 l 1
 240 660 l 1
 240 502 l 1
 365 502 l 1
EndSplineSet
EndChar
StartChar: v
Encoding: 118 118 23
Width: 473
Flags: MW
HStem: -3 21G<189 189> 487 20G<93 93 360 360>
LayerCount: 2
Back
Fore
SplineSet
450 473 m 1
 271 15 l 1
 189 -3 l 1
 3 471 l 1
 93 507 l 1
 226 156 l 1
 360 507 l 1
 450 473 l 1
EndSplineSet
EndChar
StartChar: w
Encoding: 119 119 24
Width: 679
Flags: MW
HStem: -5 21G<135 135> 482 20G<132 132 636 636>
LayerCount: 2
Back
Fore
SplineSet
636 502 m 1
 484 15 l 1
 396 -4 l 1
 324 296 l 1
 225 14 l 1
 135 -5 l 1
 37 481 l 1
 132 502 l 1
 192 196 l 1
 288 484 l 1
 373 499 l 1
 444 192 l 1
 531 485 l 1
 636 502 l 1
EndSplineSet
EndChar
StartChar: x
Encoding: 120 120 25
Width: 497
Flags: MW
HStem: -13 21G<71 71> 495 20G<388 388>
LayerCount: 2
Back
Fore
SplineSet
444 41 m 1
 367 -12 l 1
 231 180 l 1
 71 -13 l 1
 1 48 l 1
 177 259 l 1
 38 460 l 1
 114 514 l 1
 238 335 l 1
 388 515 l 1
 458 453 l 1
 294 256 l 1
 444 41 l 1
EndSplineSet
EndChar
StartChar: y
Encoding: 121 121 26
Width: 526
Flags: MW
HStem: -187 21G<188 188> 488 20G<404 404>
LayerCount: 2
Back
Fore
SplineSet
404 508 m 1
 492 467 l 1
 188 -187 l 1
 101 -146 l 1
 205 78 l 1
 12 464 l 1
 98 507 l 1
 256 191 l 1
 404 508 l 1
EndSplineSet
EndChar
StartChar: z
Encoding: 122 122 27
Width: 479
Flags: MW
HStem: 0 96<166 411> 406 96<59 291 42 402>
LayerCount: 2
Back
Fore
SplineSet
411 0 m 1
 55 0 l 1
 22 68 l 1
 291 406 l 1
 42 406 l 1
 59 502 l 1
 402 502 l 1
 434 435 l 1
 166 96 l 1
 428 96 l 1
 411 0 l 1
EndSplineSet
EndChar
StartChar: braceleft
Encoding: 123 123 83
Width: 400
Flags: MW
HStem: -115 21G<327 327> 688 94<326 328>
VStem: 125 95<44 228 453 454 454 625> 125 203<453 782 625 782>
LayerCount: 2
Back
Fore
SplineSet
64 310 m 1xd0
 64 379 l 1
 102 395 125 420 125 453 c 2
 125 625 l 2
 125 746 258 781 328 782 c 1xd0
 326 688 l 1
 267 686 220 663 220 625 c 2
 220 454 l 2
 220 408 204 380 167 341 c 1
 191 315 220 284 220 228 c 2
 220 44 l 2xe0
 220 10 256 -15 329 -21 c 1
 327 -115 l 1
 257 -113 125 -77 125 44 c 2
 125 236 l 2
 125 269 102 294 64 310 c 1xd0
EndSplineSet
EndChar
StartChar: bar
Encoding: 124 124 93
Width: 281
Flags: MW
HStem: -69 21G<88 88> 717 20G<182 182>
VStem: 88 94<-52 -52 -52 719 719 719>
LayerCount: 2
Back
Fore
SplineSet
182 -52 m 1
 88 -69 l 1
 88 719 l 1
 182 737 l 1
 182 -52 l 1
EndSplineSet
EndChar
StartChar: braceright
Encoding: 125 125 82
Width: 400
Flags: MW
HStem: -115 94<48 50> 762 20G<49 49>
VStem: 48 203<-115 42> 156 95<42 213 213 214 439 623>
LayerCount: 2
Back
Fore
SplineSet
312 357 m 1xe0
 312 288 l 1
 274 272 251 247 251 214 c 2
 251 42 l 2
 251 -79 118 -114 48 -115 c 1xe0
 50 -21 l 1
 109 -19 156 4 156 42 c 2
 156 213 l 2
 156 259 172 287 209 326 c 1
 185 352 156 383 156 439 c 2
 156 623 l 2xd0
 156 657 120 682 47 688 c 1
 49 782 l 1
 119 780 251 744 251 623 c 2
 251 431 l 2
 251 398 274 373 312 357 c 1xe0
EndSplineSet
EndChar
StartChar: asciitilde
Encoding: 126 126 89
Width: 671
Flags: MW
HStem: 136 105<400 424.5 400 464.5> 261 105<199.5 232.5>
LayerCount: 2
Back
Fore
SplineSet
492 357 m 1
 581 314 l 1
 567 272 519 136 410 136 c 0
 341 136 308 172 278 214 c 0
 257 244 242 261 223 261 c 0
 176 261 149 172 146 157 c 1
 60 200 l 1
 81 275 135 366 223 366 c 0
 291 366 325 330 354 289 c 0
 376 259 390 241 410 241 c 0
 439 241 473 285 492 357 c 1
EndSplineSet
EndChar
StartChar: exclamdown
Encoding: 161 161 214
Width: 211
Flags: MW
HStem: -179 21G<45 45> 485 20G<148 148>
VStem: 45 95<-163 321 321 321>
LayerCount: 2
Back
Fore
SplineSet
45 321 m 1
 140 340 l 1
 140 -163 l 1
 45 -179 l 1
 45 321 l 1
40 366 m 1
 50 488 l 1
 148 505 l 1
 139 383 l 1
 40 366 l 1
EndSplineSet
EndChar
StartChar: cent
Encoding: 162 162 99
Width: 532
Flags: MW
HStem: -9 21G<206 206> 662 20G<310 310>
VStem: 48 92<288.5 330 288.5 362> 207 100 214 93
LayerCount: 2
Back
Fore
SplineSet
297 90 m 1
 295 22 l 1
 206 -9 l 1
 208 98 l 1
 102 135 48 216 48 308 c 0
 48 416 109 539 220 580 c 1
 222 648 l 1
 310 682 l 1
 308 588 l 1
 357 579 407 547 442 499 c 1
 372 430 l 1
 350 466 329 487 307 493 c 1
 304 383 297 185 297 185 c 1
 335 196 376 231 398 274 c 1
 468 203 l 1
 428 141 367 98 297 90 c 1
210 197 m 1
 218 476 l 1
 161 433 140 349 140 311 c 0
 140 266 163 223 210 197 c 1
EndSplineSet
EndChar
StartChar: sterling
Encoding: 163 163 98
Width: 790
Flags: MW
HStem: -11 21G<181 181> -9 94<493.5 533.5 493.5 536.5> 298 94<87 172 87 194 69 172 289 289 289 496> 468 238 611 95<352.5 442>
VStem: 169 95<450 511.5 450 542.5> 209 95<203 213.5>
LayerCount: 2
Back
Fore
SplineSet
590 189 m 1x72
 683 177 l 1
 662 11 560 -9 513 -9 c 0x74
 455 -9 406 16 350 52 c 0
 337 60 323 65 305 65 c 0
 278 65 239 47 181 -11 c 1
 118 64 l 1
 177 107 209 168 209 201 c 0xb2
 209 226 208 248 194 298 c 1
 69 298 l 1
 87 392 l 1
 172 392 l 1
 169 416 169 439 169 461 c 0
 169 624 253 706 404 706 c 0
 575 706 626 552 633 471 c 1
 539 466 l 1
 529 555 486 611 398 611 c 0
 307 611 264 563 264 460 c 0x6c
 264 440 264 418 268 392 c 1
 513 392 l 1
 496 298 l 1
 289 298 l 1
 301 253 304 226 304 210 c 0
 304 196 302 178 298 159 c 1
 311 159 l 2
 346 159 379 147 408 126 c 0
 441 99 474 85 513 85 c 0
 554 85 580 120 590 189 c 1x72
EndSplineSet
EndChar
StartChar: currency
Encoding: 164 164 119
Width: 526
Flags: MW
HStem: 37 21G<102 102> 83 92<237 266.5> 326 92<237.5 266.5 237.5 272.5> 448 20G<102 102 401 401>
VStem: 83 92<237 265.5> 327 92<236.5 266 236.5 272>
LayerCount: 2
Back
Fore
SplineSet
419 251 m 0
 419 222 412 195 399 171 c 1
 466 104 l 1
 401 38 l 1
 333 105 l 1
 309 91 281 83 252 83 c 0
 222 83 193 91 169 105 c 1
 102 37 l 1
 36 103 l 1
 104 171 l 1
 91 195 83 223 83 251 c 0
 83 280 92 308 105 333 c 1
 36 403 l 1
 102 468 l 1
 172 398 l 1
 196 412 223 418 252 418 c 0
 281 418 307 412 332 398 c 1
 401 468 l 1
 466 403 l 1
 398 334 l 1
 413 309 419 281 419 251 c 0
252 175 m 0
 293 175 327 209 327 251 c 0
 327 293 293 326 252 326 c 0
 210 326 175 293 175 251 c 0
 175 209 210 175 252 175 c 0
EndSplineSet
EndChar
StartChar: yen
Encoding: 165 165 80
Width: 611
Flags: MW
HStem: -5 21G<237 237> 112 94<113 237 113 237 96 237 332 454> 262 94<113 198 113 237 96 198 373 454> 652 20G<48 153 153 153 428 533 533 533>
VStem: 237 95<12 112 12 112 12 112 206 262>
LayerCount: 2
Back
Fore
SplineSet
237 262 m 1
 96 262 l 1
 113 356 l 1
 198 356 l 1
 48 672 l 1
 153 672 l 1
 286 391 l 1
 428 672 l 1
 533 672 l 1
 373 356 l 1
 472 356 l 1
 454 262 l 1
 332 262 l 1
 332 206 l 1
 472 206 l 1
 454 112 l 1
 332 112 l 1
 332 12 l 1
 237 -5 l 1
 237 112 l 1
 96 112 l 1
 113 206 l 1
 237 206 l 1
 237 262 l 1
EndSplineSet
EndChar
StartChar: section
Encoding: 167 167 122
Width: 501
Flags: MW
HStem: 0 94<220 275.5 220 298.5> 541 90<234.5 287.5>
VStem: 81 82 337 86
LayerCount: 2
Back
Fore
SplineSet
331 275 m 1
 336 284 337 293 337 299 c 0
 337 330 322 345 243 369 c 0
 228 374 196 384 173 390 c 1
 165 382 163 375 163 367 c 0
 163 321 216 313 248 304 c 0
 280 294 308 287 331 275 c 1
417 458 m 1
 326 472 l 1
 329 487 329 495 329 504 c 0
 329 522 315 541 260 541 c 0
 209 541 174 526 174 499 c 0
 174 465 225 450 255 441 c 0
 348 411 421 388 421 281 c 0
 421 261 416 239 406 220 c 1
 416 202 422 178 422 151 c 0
 422 79 353 0 244 0 c 0
 117 0 56 116 55 160 c 1
 141 172 l 1
 159 123 196 94 244 94 c 0
 307 94 328 133 328 152 c 0
 328 179 306 198 237 220 c 0
 135 253 82 296 82 370 c 0
 82 397 88 417 99 434 c 1
 87 453 81 475 81 500 c 0
 81 605 185 631 258 631 c 0
 370 631 423 576 423 506 c 0
 423 498 421 480 417 458 c 1
EndSplineSet
EndChar
StartChar: dieresis
Encoding: 168 168 123
Width: 526
Flags: MW
HStem: 516 21G<105 105 271 271> 632 20G<232 232 397 397>
LayerCount: 2
Back
Fore
SplineSet
232 652 m 1
 220 531 l 1
 105 516 l 1
 119 638 l 1
 232 652 l 1
397 652 m 1
 385 531 l 1
 271 516 l 1
 284 638 l 1
 397 652 l 1
EndSplineSet
EndChar
StartChar: copyright
Encoding: 169 169 68
Width: 602
Flags: MW
HStem: 177 70<223.5 331 223.5 350> 318 80<264 289.5 264 305> 501 79<269.5 292> 648 70<223.5 331>
VStem: 12 70<391.5 502.5 391.5 521.5> 147 81<430 464 430 485.5> 472 70<391.5 502.5>
LayerCount: 2
Back
Fore
SplineSet
277 177 m 0
 132 177 12 298 12 447 c 0
 12 596 132 718 277 718 c 0
 423 718 542 596 542 447 c 0
 542 298 423 177 277 177 c 0
277 648 m 0
 170 648 82 558 82 447 c 0
 82 336 170 247 277 247 c 0
 385 247 472 336 472 447 c 0
 472 558 385 648 277 648 c 0
275 318 m 0
 205 318 147 377 147 444 c 0
 147 527 202 580 285 580 c 0
 315 580 352 567 391 526 c 1
 335 475 l 1
 319 494 299 501 285 501 c 0
 254 501 228 484 228 444 c 0
 228 416 253 398 275 398 c 0
 304 398 320 412 335 440 c 1
 412 419 l 1
 386 357 335 318 275 318 c 0
EndSplineSet
EndChar
StartChar: ordfeminine
Encoding: 170 170 212
Width: 276
Flags: MW
HStem: 315 21G<177 177> 326 90<115 135.5 115 136.5> 571 90<127.5 160>
VStem: -4 91<456 485.5 456 522> 177 90
LayerCount: 2
Back
Fore
SplineSet
267 626 m 1x78
 268 333 l 1
 177 315 l 1xb8
 177 334 l 1
 160 328 144 326 129 326 c 0
 50 326 -4 388 -4 473 c 0
 -4 571 60 661 155 661 c 0
 180 661 228 651 267 626 c 1x78
178 568 m 1
 170 570 165 571 155 571 c 0
 100 571 87 497 87 474 c 0
 87 438 103 416 127 416 c 0x78
 144 416 163 426 176 433 c 1
 178 568 l 1
EndSplineSet
EndChar
StartChar: guillemotleft
Encoding: 171 171 87
Width: 635
Flags: MW
HStem: 51 21G<259 259 486 486> 437 20G<278 278 504 504>
LayerCount: 2
Back
Fore
SplineSet
259 51 m 1
 38 253 l 1
 278 457 l 1
 339 386 l 1
 180 250 l 1
 324 121 l 1
 259 51 l 1
486 51 m 1
 264 253 l 1
 504 457 l 1
 565 386 l 1
 407 250 l 1
 550 121 l 1
 486 51 l 1
EndSplineSet
EndChar
StartChar: logicalnot
Encoding: 172 172 213
Width: 542
Flags: MW
HStem: 96 21G<361 361> 241 92<79 362 62 454>
VStem: 361 92<96 125>
LayerCount: 2
Back
Fore
SplineSet
361 96 m 1
 362 241 l 1
 62 241 l 1
 79 333 l 1
 454 333 l 1
 453 125 l 1
 361 96 l 1
EndSplineSet
EndChar
StartChar: uni00AD
Encoding: 173 173 130
Width: 468
Flags: MW
HStem: 206 95<77 372 60 390>
LayerCount: 2
Back
Fore
SplineSet
390 301 m 1
 372 206 l 1
 60 206 l 1
 77 301 l 1
 390 301 l 1
EndSplineSet
EndChar
StartChar: registered
Encoding: 174 174 79
Width: 602
Flags: MW
HStem: 177 70<223.5 331 223.5 350> 648 70<223.5 331>
VStem: 12 70<391.5 502.5 391.5 521.5> 472 70<391.5 502.5>
LayerCount: 2
Back
Fore
SplineSet
277 177 m 0
 132 177 12 298 12 447 c 0
 12 596 132 718 277 718 c 0
 423 718 542 596 542 447 c 0
 542 298 423 177 277 177 c 0
277 648 m 0
 170 648 82 558 82 447 c 0
 82 336 170 247 277 247 c 0
 385 247 472 336 472 447 c 0
 472 558 385 648 277 648 c 0
338 425 m 1
 401 382 l 1
 347 323 l 1
 248 391 l 1
 239 338 l 1
 157 331 l 1
 191 541 l 2
 195 566 196 583 282 583 c 0
 362 583 407 551 407 500 c 0
 407 462 374 438 338 425 c 1
EndSplineSet
EndChar
StartChar: macron
Encoding: 175 175 215
Width: 526
Flags: MW
HStem: 534 94<122 381 105 398>
LayerCount: 2
Back
Fore
SplineSet
381 534 m 1
 105 534 l 1
 122 628 l 1
 398 628 l 1
 381 534 l 1
EndSplineSet
EndChar
StartChar: degree
Encoding: 176 176 70
Width: 293
Flags: MW
HStem: 455 86<125 155 125 179.5> 655 87<125 155>
VStem: -4 88<583 613.5 583 638> 196 88<583 613.5>
LayerCount: 2
Back
Fore
SplineSet
140 455 m 0
 61 455 -4 519 -4 598 c 0
 -4 678 61 742 140 742 c 0
 219 742 284 678 284 598 c 0
 284 519 219 455 140 455 c 0
140 655 m 0
 110 655 84 629 84 598 c 0
 84 568 110 541 140 541 c 0
 170 541 196 568 196 598 c 0
 196 629 170 655 140 655 c 0
EndSplineSet
EndChar
StartChar: plusminus
Encoding: 177 177 216
Width: 461
Flags: MW
HStem: 0 93<56 383 74 366> 246 94<61 173 61 173 45 173 267 378> 445 20G<267 267>
VStem: 173 94<134 246 134 246 134 246 340 447 447 447>
LayerCount: 2
Back
Fore
SplineSet
56 0 m 1
 74 93 l 1
 383 93 l 1
 366 0 l 1
 56 0 l 1
397 340 m 1
 378 246 l 1
 267 246 l 1
 267 134 l 1
 173 117 l 1
 173 246 l 1
 45 246 l 1
 61 340 l 1
 173 340 l 1
 173 447 l 1
 267 465 l 1
 267 340 l 1
 397 340 l 1
EndSplineSet
EndChar
StartChar: twosuperior
Encoding: 178 178 217
Width: 263
Flags: MW
HStem: 399 87<92 247> 705 87<121 141.5>
VStem: 164 86<672 688.5>
LayerCount: 2
Back
Fore
SplineSet
144 538 m 0
 116 519 100 507 92 486 c 1
 260 486 l 1
 247 399 l 1
 -2 399 l 1
 -2 442 l 2
 -2 527 30 566 97 610 c 0
 143 641 164 663 164 681 c 0
 164 696 149 705 134 705 c 0
 108 705 80 687 51 638 c 1
 -10 708 l 1
 19 752 73 792 127 792 c 0
 222 792 250 724 250 681 c 0
 250 619 190 567 144 538 c 0
EndSplineSet
EndChar
StartChar: threesuperior
Encoding: 179 179 218
Width: 262
Flags: MW
HStem: 398 87<113.5 138 113.5 151.5> 574 62<75 75> 703 86<122 144>
VStem: 161 95
LayerCount: 2
Back
Fore
SplineSet
56 661 m 1
 -3 724 l 1
 24 752 70 789 124 789 c 0
 194 789 248 745 248 688 c 0
 248 661 228 630 199 617 c 1
 227 603 256 565 256 528 c 0
 256 434 177 398 126 398 c 0
 81 398 16 422 -9 511 c 1
 76 547 l 1
 82 507 101 485 126 485 c 0
 150 485 169 504 169 528 c 0
 169 553 142 577 75 574 c 1
 68 636 l 1
 101 636 161 663 161 688 c 0
 161 698 152 703 136 703 c 0
 108 703 85 691 56 661 c 1
EndSplineSet
EndChar
StartChar: acute
Encoding: 180 180 136
Width: 526
Flags: MW
HStem: 510 21G<195 195> 691 20G<297 297>
LayerCount: 2
Back
Fore
SplineSet
124 570 m 1
 297 711 l 1
 381 638 l 1
 195 510 l 1
 124 570 l 1
EndSplineSet
EndChar
StartChar: mu
Encoding: 181 181 220
Width: 541
Flags: MW
HStem: -163 21G<190 190> -5 90<214.5 247> 490 20G<177 177>
VStem: 61 95<241.5 328> 358 99<168 492 492 492>
LayerCount: 2
Back
Fore
SplineSet
61 288 m 0
 61 368 73 461 77 493 c 1
 177 510 l 1
 174 489 156 393 156 317 c 0
 156 134 174 85 223 85 c 0
 278 85 336 125 352 144 c 0
 356 147 358 159 358 168 c 2
 358 492 l 1
 457 509 l 1
 457 13 l 1
 355 -3 l 1
 355 37 l 1
 321 15 272 -5 222 -5 c 0
 207 -5 189 -4 175 0 c 1
 190 -163 l 1
 95 -146 l 1
 90 -111 61 195 61 288 c 0
EndSplineSet
EndChar
StartChar: paragraph
Encoding: 182 182 106
Width: 585
Flags: MW
HStem: -75 21G<340 340> 743 20G<349 349>
VStem: 413 85<541.5 627>
LayerCount: 2
Back
Fore
SplineSet
365 666 m 1
 344 665 l 1
 344 648 345 625 345 597 c 0
 345 470 334 234 275 -67 c 1
 188 -74 l 1
 219 83 237 212 247 317 c 1
 155 321 36 347 36 501 c 0
 36 655 204 737 349 763 c 1
 365 666 l 1
412 713 m 1
 495 720 l 1
 496 712 498 655 498 603 c 0
 498 479 488 239 428 -67 c 1
 340 -75 l 1
 403 241 413 481 413 602 c 0
 413 652 412 704 412 713 c 1
EndSplineSet
EndChar
StartChar: periodcentered
Encoding: 183 183 221
Width: 526
Flags: MW
HStem: 185 21G<188 188> 301 20G<314 314>
LayerCount: 2
Back
Fore
SplineSet
314 321 m 1
 303 200 l 1
 188 185 l 1
 202 306 l 1
 314 321 l 1
EndSplineSet
EndChar
StartChar: cedilla
Encoding: 184 184 140
Width: 526
Flags: MW
HStem: -196 57<246 261 246 279> -139 49<246 259 245.5 261> 1 20G<259 259>
VStem: 281 67<-122.5 -107>
LayerCount: 2
Back
Fore
SplineSet
184 -54 m 1x70
 209 17 l 1
 259 21 l 1
 257 -33 l 1
 310 -38 348 -60 348 -115 c 0
 348 -167 305 -196 253 -196 c 0xb0
 222 -196 200 -186 177 -157 c 1
 221 -123 l 1
 227 -132 239 -139 253 -139 c 0
 269 -139 281 -130 281 -115 c 0
 281 -99 269 -90 249 -90 c 0
 242 -90 231 -93 226 -98 c 1
 184 -54 l 1x70
EndSplineSet
EndChar
StartChar: onesuperior
Encoding: 185 185 219
Width: 205
Flags: MW
HStem: 413 87<-3 65 14 65 152 192> 834 20G<158 158>
VStem: 67 88
LayerCount: 2
Back
Fore
SplineSet
-3 413 m 1
 14 500 l 1
 65 500 l 1
 69 655 l 1
 43 632 l 1
 -15 697 l 1
 158 854 l 1
 152 500 l 1
 206 500 l 1
 192 413 l 1
 -3 413 l 1
EndSplineSet
EndChar
StartChar: ordmasculine
Encoding: 186 186 222
Width: 311
Flags: MW
HStem: 324 87<125.5 157.5 125.5 184> 577 88<137 170.5>
VStem: -3 92<462 507.5 462 532> 208 92<477.5 520>
LayerCount: 2
Back
Fore
SplineSet
140 324 m 0
 54 324 -3 398 -3 482 c 0
 -3 582 69 665 158 665 c 0
 238 665 300 590 300 506 c 0
 300 408 228 324 140 324 c 0
155 577 m 0
 119 577 89 533 89 482 c 0
 89 442 111 411 140 411 c 0
 175 411 208 453 208 502 c 0
 208 538 186 577 155 577 c 0
EndSplineSet
EndChar
StartChar: guillemotright
Encoding: 187 187 88
Width: 635
Flags: MW
HStem: 50 21G<348 348> 437 20G<105 105 332 332>
LayerCount: 2
Back
Fore
SplineSet
348 50 m 1
 284 121 l 1
 428 252 l 1
 271 386 l 1
 332 457 l 1
 572 253 l 1
 348 50 l 1
123 51 m 1
 58 121 l 1
 202 252 l 1
 44 386 l 1
 105 457 l 1
 345 253 l 1
 123 51 l 1
EndSplineSet
EndChar
StartChar: questiondown
Encoding: 191 191 115
Width: 527
Flags: MW
HStem: -1 95<169.5 254 169.5 268.5> 678 20G<343 343>
VStem: 0 94<176.5 232.5 176.5 253.5>
LayerCount: 2
Back
Fore
SplineSet
236 569 m 1
 246 681 l 1
 343 698 l 1
 334 586 l 1
 236 569 l 1
214 -1 m 0
 80 -1 0 79 0 204 c 0
 0 303 69 360 117 403 c 2
 274 544 l 1
 322 458 l 1
 179 331 l 2
 140 297 94 261 94 204 c 0
 94 149 128 94 211 94 c 0
 297 94 353 186 360 198 c 1
 431 127 l 1
 406 90 323 -1 214 -1 c 0
EndSplineSet
EndChar
StartChar: Aacute
Encoding: 193 193 149
Width: 649
Flags: MW
HStem: -12 21G<501 501> 886 20G<365 365>
LayerCount: 2
Back
Fore
SplineSet
198 772 m 1
 365 906 l 1
 451 831 l 1
 271 710 l 1
 198 772 l 1
375 684 m 1
 585 45 l 1
 501 -12 l 1
 417 240 l 1
 204 195 l 1
 129 -8 l 1
 42 36 l 1
 93 171 l 1
 70 168 l 1
 53 264 l 1
 133 279 l 1
 277 666 l 1
 375 684 l 1
244 303 m 1
 387 334 l 1
 325 518 l 1
 244 303 l 1
EndSplineSet
EndChar
StartChar: Acircumflex
Encoding: 194 194 150
Width: 649
Flags: MW
HStem: -12 21G<501 501> 875 20G<337 337>
LayerCount: 2
Back
Fore
SplineSet
223 690 m 1
 163 756 l 1
 337 895 l 1
 489 751 l 1
 423 691 l 1
 331 773 l 1
 223 690 l 1
375 684 m 1
 585 45 l 1
 501 -12 l 1
 417 240 l 1
 204 195 l 1
 129 -8 l 1
 42 36 l 1
 93 171 l 1
 70 168 l 1
 53 264 l 1
 133 279 l 1
 277 666 l 1
 375 684 l 1
244 303 m 1
 387 334 l 1
 325 518 l 1
 244 303 l 1
EndSplineSet
EndChar
StartChar: Atilde
Encoding: 195 195 227
Width: 649
Flags: MW
HStem: -12 21G<501 501> 705 88<382.5 400.5 382.5 422.5> 788 89<231.5 256.5>
LayerCount: 2
Back
Fore
SplineSet
375 684 m 1xc0
 585 45 l 1
 501 -12 l 1
 417 240 l 1
 204 195 l 1
 129 -8 l 1
 42 36 l 1
 93 171 l 1
 70 168 l 1
 53 264 l 1
 133 279 l 1
 277 666 l 1
 375 684 l 1xc0
244 303 m 1
 387 334 l 1
 325 518 l 1
 244 303 l 1
451 870 m 1
 518 838 l 1
 507 807 473 705 372 705 c 0xc0
 340 705 313 722 291 753 c 0
 275 776 264 788 249 788 c 0
 214 788 194 732 192 720 c 1
 127 753 l 1
 143 809 183 877 261 877 c 0xa0
 300 877 326 860 348 829 c 0
 364 807 375 793 390 793 c 0
 411 793 437 816 451 870 c 1
EndSplineSet
EndChar
StartChar: Adieresis
Encoding: 196 196 152
Width: 649
Flags: MW
HStem: -12 21G<501 501> 813 20G<312 312 482 482>
LayerCount: 2
Back
Fore
SplineSet
375 684 m 1
 585 45 l 1
 501 -12 l 1
 417 240 l 1
 204 195 l 1
 129 -8 l 1
 42 36 l 1
 93 171 l 1
 70 168 l 1
 53 264 l 1
 133 279 l 1
 277 666 l 1
 375 684 l 1
244 303 m 1
 387 334 l 1
 325 518 l 1
 244 303 l 1
312 833 m 1
 300 719 l 1
 182 704 l 1
 196 818 l 1
 312 833 l 1
482 833 m 1
 470 719 l 1
 352 704 l 1
 366 818 l 1
 482 833 l 1
EndSplineSet
EndChar
StartChar: Aring
Encoding: 197 197 228
Width: 649
Flags: MW
HStem: -12 21G<501 501> 702 84<303.5 330 303.5 349> 857 85<318.5 343>
VStem: 185 86<806.5 828.5 806.5 850.5> 378 84<814.5 834.5>
LayerCount: 2
Back
Fore
SplineSet
314 702 m 0
 238 702 185 752 185 815 c 0
 185 886 251 942 333 942 c 0
 412 942 462 887 462 828 c 0
 462 744 384 702 314 702 c 0
330 857 m 0
 307 857 271 842 271 815 c 0
 271 798 291 786 316 786 c 0
 344 786 378 803 378 826 c 0
 378 843 356 857 330 857 c 0
375 684 m 1
 585 45 l 1
 501 -12 l 1
 417 240 l 1
 204 195 l 1
 129 -8 l 1
 42 36 l 1
 93 171 l 1
 70 168 l 1
 53 264 l 1
 133 279 l 1
 277 666 l 1
 375 684 l 1
244 303 m 1
 387 334 l 1
 325 518 l 1
 244 303 l 1
EndSplineSet
EndChar
StartChar: AE
Encoding: 198 198 229
Width: 1075
Flags: MW
HStem: -6 21G<129 129> 0 99<575 950> 304 98<575 912 575 941> 582 99<575 958 575 575>
VStem: 476 99<99 281 281 281 402 484 484 484>
LayerCount: 2
Back
Fore
SplineSet
167 215 m 1xb8
 148 313 l 1
 253 334 l 1
 497 681 l 1
 975 681 l 1
 958 582 l 1
 575 582 l 1
 575 402 l 1
 941 402 l 1
 912 304 l 1
 575 304 l 1
 575 99 l 1
 985 99 l 1
 950 0 l 1
 476 0 l 1x78
 476 281 l 1
 307 246 l 1
 129 -6 l 1
 44 39 l 1
 167 215 l 1xb8
476 379 m 1
 476 484 l 1
 389 361 l 1
 476 379 l 1
EndSplineSet
EndChar
StartChar: Ccedilla
Encoding: 199 199 155
Width: 657
Flags: MW
HStem: -196 57<336 351 336 369> -90 185<335.5 349> 0 95<348 348> 502 163<460 549 460 549> 585 80 585 96<286.5 366 256.5 370.5>
VStem: 48 95<241 353.5 241 374> 371 67<-122.5 -107>
LayerCount: 2
Back
Fore
SplineSet
274 -54 m 1xd3
 294 2 l 1
 156 22 48 142 48 294 c 0
 48 454 167 681 346 681 c 0xc7
 386 681 426 667 460 651 c 1
 460 665 l 1
 549 665 l 1
 549 502 l 1
 460 502 l 1xd3
 460 539 l 1
 438 561 400 585 341 585 c 0
 232 585 143 411 143 296 c 0
 143 186 229 95 335 95 c 0
 414 95 482 140 523 221 c 1
 595 149 l 1
 540 60 448 4 348 0 c 1xab
 347 -33 l 1
 400 -38 438 -60 438 -115 c 0
 438 -167 395 -196 343 -196 c 0
 312 -196 290 -186 267 -157 c 1
 311 -123 l 1
 317 -132 329 -139 343 -139 c 0
 359 -139 371 -130 371 -115 c 0
 371 -99 359 -90 339 -90 c 0
 332 -90 321 -93 316 -98 c 1
 274 -54 l 1xd3
EndSplineSet
EndChar
StartChar: Egrave
Encoding: 200 200 230
Width: 637
Flags: MW
HStem: 0 99<160 535> 304 98<160 497 160 526> 582 99<160 543 160 160> 892 20G<260 260>
VStem: 61 99<99 99 99 304 402 582>
LayerCount: 2
Back
Fore
SplineSet
408 750 m 1
 326 700 l 1
 161 856 l 1
 260 912 l 1
 408 750 l 1
160 99 m 1
 570 99 l 1
 535 0 l 1
 61 0 l 1
 61 681 l 1
 560 681 l 1
 543 582 l 1
 160 582 l 1
 160 402 l 1
 526 402 l 1
 497 304 l 1
 160 304 l 1
 160 99 l 1
EndSplineSet
EndChar
StartChar: Eacute
Encoding: 201 201 157
Width: 637
Flags: MW
HStem: 0 99<160 535> 304 98<160 497 160 526> 582 99<160 543 160 160> 886 20G<349 349>
VStem: 61 99<99 99 99 304 402 582>
LayerCount: 2
Back
Fore
SplineSet
172 772 m 1
 349 906 l 1
 435 831 l 1
 245 710 l 1
 172 772 l 1
160 99 m 1
 570 99 l 1
 535 0 l 1
 61 0 l 1
 61 681 l 1
 560 681 l 1
 543 582 l 1
 160 582 l 1
 160 402 l 1
 526 402 l 1
 497 304 l 1
 160 304 l 1
 160 99 l 1
EndSplineSet
EndChar
StartChar: Ecircumflex
Encoding: 202 202 231
Width: 637
Flags: MW
HStem: 0 99<160 535> 304 98<160 497 160 526> 582 99<160 543 160 160> 875 20G<320 320>
VStem: 61 99<99 99 99 304 402 582>
LayerCount: 2
Back
Fore
SplineSet
206 700 m 1
 147 766 l 1
 320 895 l 1
 472 761 l 1
 407 701 l 1
 314 783 l 1
 206 700 l 1
160 99 m 1
 570 99 l 1
 535 0 l 1
 61 0 l 1
 61 681 l 1
 560 681 l 1
 543 582 l 1
 160 582 l 1
 160 402 l 1
 526 402 l 1
 497 304 l 1
 160 304 l 1
 160 99 l 1
EndSplineSet
EndChar
StartChar: Edieresis
Encoding: 203 203 159
Width: 637
Flags: MW
HStem: 0 99<160 535> 304 98<160 497 160 526> 582 99<160 543 160 160> 813 20G<292 292 462 462>
VStem: 61 99<99 99 99 304 402 582>
LayerCount: 2
Back
Fore
SplineSet
292 833 m 1
 280 719 l 1
 163 704 l 1
 177 818 l 1
 292 833 l 1
462 833 m 1
 450 719 l 1
 333 704 l 1
 347 818 l 1
 462 833 l 1
160 99 m 1
 570 99 l 1
 535 0 l 1
 61 0 l 1
 61 681 l 1
 560 681 l 1
 543 582 l 1
 160 582 l 1
 160 402 l 1
 526 402 l 1
 497 304 l 1
 160 304 l 1
 160 99 l 1
EndSplineSet
EndChar
StartChar: Igrave
Encoding: 204 204 232
Width: 463
Flags: MW
HStem: 0 99<65 177 276 382 48 177> 582 99<65 177 48 400 276 382 276 276> 892 20G<191 191>
VStem: 177 99<99 582 99 582>
LayerCount: 2
Back
Fore
SplineSet
339 750 m 1
 256 700 l 1
 91 856 l 1
 191 912 l 1
 339 750 l 1
382 582 m 1
 276 582 l 1
 276 99 l 1
 400 99 l 1
 382 0 l 1
 48 0 l 1
 65 99 l 1
 177 99 l 1
 177 582 l 1
 48 582 l 1
 65 681 l 1
 400 681 l 1
 382 582 l 1
EndSplineSet
EndChar
StartChar: Iacute
Encoding: 205 205 161
Width: 463
Flags: MW
HStem: 0 99<65 177 276 382 48 177> 582 99<65 177 48 400 276 382 276 276> 886 20G<277 277>
VStem: 177 99<99 582 99 582>
LayerCount: 2
Back
Fore
SplineSet
100 772 m 1
 277 906 l 1
 363 831 l 1
 173 710 l 1
 100 772 l 1
382 582 m 1
 276 582 l 1
 276 99 l 1
 400 99 l 1
 382 0 l 1
 48 0 l 1
 65 99 l 1
 177 99 l 1
 177 582 l 1
 48 582 l 1
 65 681 l 1
 400 681 l 1
 382 582 l 1
EndSplineSet
EndChar
StartChar: Icircumflex
Encoding: 206 206 162
Width: 463
Flags: MW
HStem: 0 99<65 177 276 382 48 177> 582 99<65 177 48 400 276 382 276 276> 875 20G<237 237>
VStem: 177 99<99 582 99 582>
LayerCount: 2
Back
Fore
SplineSet
123 700 m 1
 63 776 l 1
 237 895 l 1
 388 771 l 1
 323 701 l 1
 231 783 l 1
 123 700 l 1
382 582 m 1
 276 582 l 1
 276 99 l 1
 400 99 l 1
 382 0 l 1
 48 0 l 1
 65 99 l 1
 177 99 l 1
 177 582 l 1
 48 582 l 1
 65 681 l 1
 400 681 l 1
 382 582 l 1
EndSplineSet
EndChar
StartChar: Idieresis
Encoding: 207 207 233
Width: 463
Flags: MW
HStem: 0 99<65 177 276 382 48 177> 582 99<65 177 48 400 276 382 276 276> 813 20G<209 209 379 379>
VStem: 177 99<99 582 99 582>
LayerCount: 2
Back
Fore
SplineSet
209 833 m 1
 197 719 l 1
 79 704 l 1
 93 818 l 1
 209 833 l 1
379 833 m 1
 367 719 l 1
 249 704 l 1
 263 818 l 1
 379 833 l 1
382 582 m 1
 276 582 l 1
 276 99 l 1
 400 99 l 1
 382 0 l 1
 48 0 l 1
 65 99 l 1
 177 99 l 1
 177 582 l 1
 48 582 l 1
 65 681 l 1
 400 681 l 1
 382 582 l 1
EndSplineSet
EndChar
StartChar: Eth
Encoding: 208 208 234
Width: 702
Flags: MW
HStem: -14 97<260 294.5 260 381.5> 271 102<35 115 35 115 18 115 35 212 212 302> 583 97<212 212>
VStem: 115 97<86 271 86 271 86 271 373 583> 522 97<261.5 359>
LayerCount: 2
Back
Fore
SplineSet
115 7 m 1
 115 271 l 1
 18 271 l 1
 35 373 l 1
 115 373 l 1
 115 680 l 1
 162 680 l 2
 272 680 361 656 419 630 c 0
 542 567 619 451 619 304 c 0
 619 101 493 -14 270 -14 c 0
 234 -14 166 -7 115 7 c 1
440 123 m 0
 495 158 522 219 522 304 c 0
 522 414 471 496 376 541 c 0
 318 566 260 581 212 583 c 1
 212 373 l 1
 319 373 l 1
 302 271 l 1
 212 271 l 1
 212 86 l 1
 228 84 250 83 270 83 c 0
 319 83 389 89 440 123 c 0
EndSplineSet
EndChar
StartChar: Ntilde
Encoding: 209 209 235
Width: 641
Flags: MW
HStem: -4 21G<62 62> 705 88<374.5 392.5 374.5 414.5> 788 89<223.5 248.5>
VStem: 61 97 463 96<184 668 668 668>
LayerCount: 2
Back
Fore
SplineSet
463 668 m 1xd8
 559 686 l 1
 559 16 l 1
 465 -3 l 1
 158 489 l 1
 158 15 l 1
 62 -4 l 1
 61 660 l 1
 149 685 l 1
 463 184 l 1
 463 668 l 1xd8
443 870 m 1
 510 838 l 1
 499 807 465 705 364 705 c 0xd8
 332 705 305 722 283 753 c 0
 267 776 256 788 241 788 c 0
 206 788 186 732 184 720 c 1
 119 753 l 1
 135 809 175 877 253 877 c 0xb8
 292 877 318 860 340 829 c 0
 356 807 367 793 382 793 c 0
 403 793 429 816 443 870 c 1
EndSplineSet
EndChar
StartChar: Ograve
Encoding: 210 210 236
Width: 686
Flags: MW
HStem: 0 95<266 363.5 266 391> 589 95<293.5 393.5> 892 20G<315 315>
VStem: 57 96<256.5 392.5 256.5 416.5> 511 96<290.5 420>
LayerCount: 2
Back
Fore
SplineSet
463 750 m 1
 380 700 l 1
 215 856 l 1
 315 912 l 1
 463 750 l 1
312 0 m 0
 163 0 57 146 57 317 c 0
 57 516 194 684 351 684 c 0
 498 684 607 540 607 367 c 0
 607 168 470 0 312 0 c 0
345 589 m 0
 242 589 153 468 153 317 c 0
 153 196 220 95 312 95 c 0
 415 95 511 218 511 363 c 0
 511 477 442 589 345 589 c 0
EndSplineSet
EndChar
StartChar: Otilde
Encoding: 213 213 237
Width: 686
Flags: MW
HStem: 0 95<266 363.5 266 391> 589 95<293.5 393.5> 705 88<412.5 430.5 412.5 452.5> 788 89<261.5 286.5>
VStem: 57 96<256.5 392.5 256.5 416.5> 511 96<290.5 420>
LayerCount: 2
Back
Fore
SplineSet
312 0 m 0xec
 163 0 57 146 57 317 c 0
 57 516 194 684 351 684 c 0
 498 684 607 540 607 367 c 0
 607 168 470 0 312 0 c 0xec
345 589 m 0
 242 589 153 468 153 317 c 0
 153 196 220 95 312 95 c 0
 415 95 511 218 511 363 c 0
 511 477 442 589 345 589 c 0
481 870 m 1
 548 838 l 1
 537 807 503 705 402 705 c 0xec
 370 705 343 722 321 753 c 0
 305 776 294 788 279 788 c 0
 244 788 224 732 222 720 c 1
 157 753 l 1
 173 809 213 877 291 877 c 0xdc
 330 877 356 860 378 829 c 0
 394 807 405 793 420 793 c 0
 441 793 467 816 481 870 c 1
EndSplineSet
EndChar
StartChar: Odieresis
Encoding: 214 214 170
Width: 686
Flags: MW
HStem: 0 95<266 363.5 266 391> 589 95<293.5 393.5> 813 20G<332 332 501 501>
VStem: 57 96<256.5 392.5 256.5 416.5> 511 96<290.5 420>
LayerCount: 2
Back
Fore
SplineSet
332 833 m 1
 320 719 l 1
 202 704 l 1
 216 818 l 1
 332 833 l 1
501 833 m 1
 489 719 l 1
 372 704 l 1
 385 818 l 1
 501 833 l 1
312 0 m 0
 163 0 57 146 57 317 c 0
 57 516 194 684 351 684 c 0
 498 684 607 540 607 367 c 0
 607 168 470 0 312 0 c 0
345 589 m 0
 242 589 153 468 153 317 c 0
 153 196 220 95 312 95 c 0
 415 95 511 218 511 363 c 0
 511 477 442 589 345 589 c 0
EndSplineSet
EndChar
StartChar: multiply
Encoding: 215 215 171
Width: 380
Flags: MW
HStem: 108 21G<103 103> 377 20G<260 260>
LayerCount: 2
Back
Fore
SplineSet
249 253 m 1
 326 176 l 1
 259 109 l 1
 182 186 l 1
 103 108 l 1
 37 174 l 1
 117 253 l 1
 46 324 l 1
 112 390 l 1
 183 319 l 1
 260 397 l 1
 327 330 l 1
 249 253 l 1
EndSplineSet
EndChar
StartChar: Oslash
Encoding: 216 216 238
Width: 686
Flags: MW
HStem: -39 21G<155 155> -1 95<299 373.5 299 391> 588 95<294 352.5> 726 20G<481 481>
VStem: 57 96<295.5 392 295.5 414> 511 96<303.5 389>
LayerCount: 2
Back
Fore
SplineSet
564 697 m 1
 516 611 l 1
 578 551 607 456 607 366 c 0
 607 167 470 -1 312 -1 c 0
 273 -1 229 12 195 33 c 1
 155 -39 l 1
 71 7 l 1
 123 100 l 1
 77 158 57 230 57 314 c 0
 57 514 193 683 351 683 c 0
 381 683 411 677 437 666 c 1
 481 746 l 1
 564 697 l 1
177 197 m 1
 389 579 l 1
 375 585 360 588 345 588 c 0
 243 588 153 467 153 317 c 0
 153 274 161 232 177 197 c 1
312 94 m 0
 435 94 511 245 511 362 c 0
 511 416 493 474 465 517 c 1
 240 116 l 1
 262 102 286 94 312 94 c 0
EndSplineSet
EndChar
StartChar: Ugrave
Encoding: 217 217 239
Width: 710
Flags: MW
HStem: 0 92<261.5 427.5 261.5 473> 892 20G<321 321>
VStem: 63 99<351.5 482 351.5 483.5> 525 99<353.5 463.5>
LayerCount: 2
Back
Fore
SplineSet
469 750 m 1
 386 700 l 1
 221 856 l 1
 321 912 l 1
 469 750 l 1
343 0 m 0
 103 0 63 194 63 451 c 0
 63 516 65 640 66 668 c 1
 165 685 l 1
 164 664 162 521 162 443 c 0
 162 260 180 92 343 92 c 0
 512 92 525 276 525 425 c 0
 525 502 523 633 522 666 c 1
 621 685 l 1
 622 662 624 536 624 467 c 0
 624 240 603 0 343 0 c 0
EndSplineSet
EndChar
StartChar: Uacute
Encoding: 218 218 174
Width: 710
Flags: MW
HStem: 0 92<261.5 427.5 261.5 473> 886 20G<411 411>
VStem: 63 99<351.5 482 351.5 483.5> 525 99<353.5 463.5>
LayerCount: 2
Back
Fore
SplineSet
234 772 m 1
 411 906 l 1
 498 831 l 1
 308 710 l 1
 234 772 l 1
343 0 m 0
 103 0 63 194 63 451 c 0
 63 516 65 640 66 668 c 1
 165 685 l 1
 164 664 162 521 162 443 c 0
 162 260 180 92 343 92 c 0
 512 92 525 276 525 425 c 0
 525 502 523 633 522 666 c 1
 621 685 l 1
 622 662 624 536 624 467 c 0
 624 240 603 0 343 0 c 0
EndSplineSet
EndChar
StartChar: Udieresis
Encoding: 220 220 176
Width: 710
Flags: MW
HStem: 0 92<261.5 427.5 261.5 473> 813 20G<332 332 501 501>
VStem: 63 99<351.5 482 351.5 483.5> 525 99<353.5 463.5>
LayerCount: 2
Back
Fore
SplineSet
332 833 m 1
 320 719 l 1
 203 704 l 1
 217 818 l 1
 332 833 l 1
501 833 m 1
 489 719 l 1
 372 704 l 1
 386 818 l 1
 501 833 l 1
343 0 m 0
 103 0 63 194 63 451 c 0
 63 516 65 640 66 668 c 1
 165 685 l 1
 164 664 162 521 162 443 c 0
 162 260 180 92 343 92 c 0
 512 92 525 276 525 425 c 0
 525 502 523 633 522 666 c 1
 621 685 l 1
 622 662 624 536 624 467 c 0
 624 240 603 0 343 0 c 0
EndSplineSet
EndChar
StartChar: Thorn
Encoding: 222 222 241
Width: 532
Flags: MW
HStem: -6 21G<59 59> 135 99<155 156> 486 97<157 157> 671 20G<157 157>
VStem: 59 97<234 234 234 670> 389 100<334 411.5>
LayerCount: 2
Back
Fore
SplineSet
59 670 m 1
 157 691 l 1
 157 583 l 1
 295 581 489 557 489 375 c 0
 489 196 298 146 155 135 c 1
 155 16 l 1
 59 -6 l 1
 59 670 l 1
156 234 m 1
 294 245 389 293 389 375 c 0
 389 448 288 481 157 486 c 1
 156 234 l 1
EndSplineSet
EndChar
StartChar: germandbls
Encoding: 223 223 179
Width: 551
Flags: MW
HStem: -22 93<300 338.5 300 370> 535 92<232.5 275>
VStem: 78 92<33 457 33 457 33 504> 336 93<441 478> 413 93<151 208.5>
LayerCount: 2
Back
Fore
SplineSet
429 459 m 0xf0
 429 423 413 379 388 360 c 1
 457 332 506 271 506 182 c 0
 506 73 426 -22 314 -22 c 0
 280 -22 238 -14 194 13 c 1
 238 95 l 1
 263 78 291 71 309 71 c 0
 368 71 413 121 413 181 c 0xe8
 413 236 370 291 307 291 c 0
 292 291 259 287 206 276 c 1
 233 375 l 1
 313 386 336 423 336 457 c 0
 336 499 296 535 254 535 c 0
 211 535 170 499 170 457 c 2
 170 33 l 1
 78 -14 l 1
 78 457 l 2
 78 551 159 627 254 627 c 0
 347 627 429 553 429 459 c 0xf0
EndSplineSet
EndChar
StartChar: agrave
Encoding: 224 224 242
Width: 530
Flags: MW
HStem: -5 21G<350 350> 6 96<239 259 239 260.5> 417 95<236 299.5> 717 20G<226 226>
VStem: 47 97<199.5 261.5 199.5 276.5> 350 96<13 34 34 34>
LayerCount: 2
Back
Fore
SplineSet
371 579 m 1x7c
 291 530 l 1
 130 681 l 1
 226 737 l 1
 371 579 l 1x7c
446 466 m 1
 446 13 l 1
 350 -5 l 1xbc
 350 34 l 1
 318 18 281 6 240 6 c 0
 129 6 47 95 47 226 c 0
 47 327 111 512 285 512 c 0
 339 512 395 492 446 466 c 1
144 227 m 0
 144 172 170 103 239 102 c 0x7c
 279 102 324 126 348 143 c 1
 352 404 l 1
 335 412 309 417 290 417 c 0
 182 417 144 296 144 227 c 0
EndSplineSet
EndChar
StartChar: acircumflex
Encoding: 226 226 182
Width: 530
Flags: MW
HStem: -5 21G<350 350> 6 96<239 259 239 260.5> 417 95<236 299.5> 700 20G<291 291>
VStem: 47 97<199.5 261.5 199.5 276.5> 350 96<13 34 34 34>
LayerCount: 2
Back
Fore
SplineSet
179 520 m 1x7c
 120 585 l 1
 291 720 l 1
 439 580 l 1
 375 521 l 1
 285 602 l 1
 179 520 l 1x7c
446 466 m 1
 446 13 l 1
 350 -5 l 1xbc
 350 34 l 1
 318 18 281 6 240 6 c 0
 129 6 47 95 47 226 c 0
 47 327 111 512 285 512 c 0
 339 512 395 492 446 466 c 1
144 227 m 0
 144 172 170 103 239 102 c 0x7c
 279 102 324 126 348 143 c 1
 352 404 l 1
 335 412 309 417 290 417 c 0
 182 417 144 296 144 227 c 0
EndSplineSet
EndChar
StartChar: atilde
Encoding: 227 227 243
Width: 539
Flags: MW
HStem: -5 21G<350 350> 6 96<239 259 239 260.5> 417 95<236 299.5> 536 88<327.5 345.5 327.5 367.5> 619 89<176.5 201.5>
VStem: 47 97<199.5 261.5 199.5 276.5> 350 96<13 34 34 34>
LayerCount: 2
Back
Fore
SplineSet
396 701 m 1x76
 463 669 l 1
 452 638 418 536 317 536 c 0x76
 285 536 258 553 236 584 c 0
 220 607 209 619 194 619 c 0
 159 619 139 563 137 551 c 1
 72 584 l 1
 88 640 128 708 206 708 c 0x6e
 245 708 271 691 293 660 c 0
 309 638 320 624 335 624 c 0
 356 624 382 647 396 701 c 1x76
446 466 m 1
 446 13 l 1
 350 -5 l 1xb6
 350 34 l 1
 318 18 281 6 240 6 c 0
 129 6 47 95 47 226 c 0
 47 327 111 512 285 512 c 0
 339 512 395 492 446 466 c 1
144 227 m 0
 144 172 170 103 239 102 c 0x76
 279 102 324 126 348 143 c 1
 352 404 l 1
 335 412 309 417 290 417 c 0
 182 417 144 296 144 227 c 0
EndSplineSet
EndChar
StartChar: adieresis
Encoding: 228 228 184
Width: 530
Flags: MW
HStem: -5 21G<350 350> 6 96<239 259 239 260.5> 417 95<236 299.5> 652 20G<261 261 427 427>
VStem: 47 97<199.5 261.5 199.5 276.5> 350 96<13 34 34 34>
LayerCount: 2
Back
Fore
SplineSet
261 672 m 1x7c
 250 561 l 1
 135 546 l 1
 149 658 l 1
 261 672 l 1x7c
427 672 m 1
 415 561 l 1
 301 546 l 1
 314 658 l 1
 427 672 l 1
446 466 m 1
 446 13 l 1
 350 -5 l 1xbc
 350 34 l 1
 318 18 281 6 240 6 c 0
 129 6 47 95 47 226 c 0
 47 327 111 512 285 512 c 0
 339 512 395 492 446 466 c 1
144 227 m 0
 144 172 170 103 239 102 c 0x7c
 279 102 324 126 348 143 c 1
 352 404 l 1
 335 412 309 417 290 417 c 0
 182 417 144 296 144 227 c 0
EndSplineSet
EndChar
StartChar: aring
Encoding: 229 229 244
Width: 530
Flags: MW
HStem: -5 21G<350 350> 6 96<239 259 239 260.5> 417 95<236 299.5> 542 84<253.5 280 253.5 299> 697 85<268.5 293>
VStem: 47 97<199.5 261.5 199.5 276.5> 135 86<646.5 668.5 646.5 690.5> 328 84<654.5 674.5> 350 96<13 34 34 34>
LayerCount: 2
Back
Fore
SplineSet
264 542 m 0x7b
 188 542 135 592 135 655 c 0
 135 726 201 782 283 782 c 0
 362 782 412 727 412 668 c 0
 412 584 334 542 264 542 c 0x7b
280 697 m 0
 257 697 221 682 221 655 c 0
 221 638 241 626 266 626 c 0
 294 626 328 643 328 666 c 0
 328 683 306 697 280 697 c 0
446 466 m 1x7c80
 446 13 l 1
 350 -5 l 1xbc80
 350 34 l 1
 318 18 281 6 240 6 c 0
 129 6 47 95 47 226 c 0
 47 327 111 512 285 512 c 0
 339 512 395 492 446 466 c 1x7c80
144 227 m 0
 144 172 170 103 239 102 c 0x7d
 279 102 324 126 348 143 c 1
 352 404 l 1
 335 412 309 417 290 417 c 0
 182 417 144 296 144 227 c 0
EndSplineSet
EndChar
StartChar: ae
Encoding: 230 230 245
Width: 890
Flags: MW
HStem: -5 21G<358 358> 0 21G<577 637> 6 86 417 85 492 20G<207 320.5>
VStem: 55 98<199.5 261.5 199.5 276.5> 358 97<13 34 34 34>
LayerCount: 2
Back
Fore
SplineSet
605 0 m 0x56
 549 0 496 21 455 54 c 1
 455 13 l 1
 358 -5 l 1x96
 358 34 l 1
 326 18 289 6 249 6 c 0
 137 6 55 95 55 226 c 0
 55 327 120 512 294 512 c 0x2e
 347 512 404 492 455 466 c 1
 455 438 l 1
 490 475 540 502 605 502 c 0
 697 502 774 426 800 335 c 1
 482 158 l 1
 509 122 556 92 605 92 c 0x36
 646 92 688 115 727 156 c 1
 794 93 l 1
 737 33 669 0 605 0 c 0x56
153 227 m 0
 153 172 178 103 247 102 c 0
 287 102 333 126 356 143 c 1
 361 404 l 1
 344 409 317 417 298 417 c 0
 191 417 153 296 153 227 c 0
455 247 m 1
 680 375 l 1
 661 396 632 410 606 410 c 0
 516 410 455 334 455 247 c 1
EndSplineSet
EndChar
StartChar: ccedilla
Encoding: 231 231 187
Width: 533
Flags: MW
HStem: -196 57<256 271 256 289> -90 183 0 93 409 93<237 293>
VStem: 48 94<167 258 167 275> 291 67<-122.5 -107>
LayerCount: 2
Back
Fore
SplineSet
194 -54 m 1xdc
 215 6 l 1
 122 30 48 115 48 219 c 0
 48 331 137 502 274 502 c 0
 339 502 398 470 442 411 c 1
 372 342 l 1
 346 386 310 409 276 409 c 0
 198 409 142 295 142 221 c 0
 142 113 238 91 276 93 c 0
 324 95 369 131 398 186 c 1
 470 114 l 1
 427 47 357 3 279 0 c 2
 268 0 l 1xbc
 267 -33 l 1
 320 -38 358 -60 358 -115 c 0
 358 -167 315 -196 263 -196 c 0
 232 -196 210 -186 187 -157 c 1
 231 -123 l 1
 237 -132 249 -139 263 -139 c 0
 279 -139 291 -130 291 -115 c 0
 291 -99 279 -90 259 -90 c 0
 252 -90 241 -93 236 -98 c 1
 194 -54 l 1xdc
EndSplineSet
EndChar
StartChar: egrave
Encoding: 232 232 246
Width: 553
Flags: MW
HStem: 0 92<266.5 311.5 266.5 323> 410 92<246 304> 717 20G<234 234>
VStem: 48 92<247 290.5 247 319.5>
LayerCount: 2
Back
Fore
SplineSet
379 579 m 1
 298 530 l 1
 137 682 l 1
 234 737 l 1
 379 579 l 1
291 0 m 0
 156 0 48 113 48 251 c 0
 48 388 155 502 291 502 c 0
 382 502 460 426 486 335 c 1
 168 158 l 1
 195 122 242 92 291 92 c 0
 332 92 374 115 413 156 c 1
 480 93 l 1
 423 33 355 0 291 0 c 0
140 247 m 1
 365 375 l 1
 346 396 317 410 291 410 c 0
 201 410 140 334 140 247 c 1
EndSplineSet
EndChar
StartChar: edieresis
Encoding: 235 235 191
Width: 553
Flags: MW
HStem: 0 92<266.5 311.5 266.5 323> 410 92<246 304> 652 20G<259 259 424 424>
VStem: 48 92<247 290.5 247 319.5>
LayerCount: 2
Back
Fore
SplineSet
259 672 m 1
 247 561 l 1
 132 546 l 1
 146 658 l 1
 259 672 l 1
424 672 m 1
 412 561 l 1
 298 546 l 1
 312 658 l 1
 424 672 l 1
291 0 m 0
 156 0 48 113 48 251 c 0
 48 388 155 502 291 502 c 0
 382 502 460 426 486 335 c 1
 168 158 l 1
 195 122 242 92 291 92 c 0
 332 92 374 115 413 156 c 1
 480 93 l 1
 423 33 355 0 291 0 c 0
140 247 m 1
 365 375 l 1
 346 396 317 410 291 410 c 0
 201 410 140 334 140 247 c 1
EndSplineSet
EndChar
StartChar: igrave
Encoding: 236 236 248
Width: 271
Flags: MW
HStem: -5 21G<76 76> 717 20G<89 89>
VStem: 76 100<12 489 489 489>
LayerCount: 2
Back
Fore
SplineSet
234 579 m 1
 153 530 l 1
 -8 682 l 1
 89 737 l 1
 234 579 l 1
76 489 m 1
 176 505 l 1
 176 12 l 1
 76 -5 l 1
 76 489 l 1
EndSplineSet
EndChar
StartChar: iacute
Encoding: 237 237 193
Width: 259
Flags: MW
HStem: -5 21G<67 67> 711 20G<190 190>
VStem: 67 99<12 489 489 489>
LayerCount: 2
Back
Fore
SplineSet
17 600 m 1
 190 731 l 1
 274 658 l 1
 88 540 l 1
 17 600 l 1
67 489 m 1
 166 505 l 1
 166 12 l 1
 67 -5 l 1
 67 489 l 1
EndSplineSet
EndChar
StartChar: icircumflex
Encoding: 238 238 194
Width: 300
Flags: MW
HStem: -5 21G<97 97> 700 20G<163 163>
VStem: 97 100<12 489 489 489>
LayerCount: 2
Back
Fore
SplineSet
52 520 m 1
 -6 585 l 1
 163 720 l 1
 311 580 l 1
 247 521 l 1
 157 602 l 1
 52 520 l 1
97 489 m 1
 197 505 l 1
 197 12 l 1
 97 -5 l 1
 97 489 l 1
EndSplineSet
EndChar
StartChar: idieresis
Encoding: 239 239 249
Width: 300
Flags: MW
HStem: -5 21G<93 93> 652 20G<133 133 298 298>
VStem: 93 99<12 489 489 489>
LayerCount: 2
Back
Fore
SplineSet
133 672 m 1
 121 561 l 1
 6 546 l 1
 20 658 l 1
 133 672 l 1
298 672 m 1
 287 561 l 1
 172 546 l 1
 186 658 l 1
 298 672 l 1
93 489 m 1
 192 505 l 1
 192 12 l 1
 93 -5 l 1
 93 489 l 1
EndSplineSet
EndChar
StartChar: eth
Encoding: 240 240 250
Width: 508
Flags: MW
HStem: 0 92<196 259.5 196 288> 646 20G<376 376>
VStem: 47 92<154.5 239 154.5 253> 348 92<217 272.5>
LayerCount: 2
Back
Fore
SplineSet
402 590 m 1
 309 547 l 1
 379 467 440 366 440 255 c 0
 440 128 357 0 219 0 c 0
 122 0 47 75 47 184 c 0
 47 322 140 417 279 437 c 1
 264 458 244 485 229 501 c 1
 186 476 132 439 118 427 c 1
 79 504 l 1
 108 523 140 544 169 561 c 1
 155 574 139 586 130 592 c 1
 192 661 l 1
 208 649 236 626 253 608 c 1
 286 626 329 647 376 666 c 1
 402 590 l 1
219 92 m 0
 300 92 348 177 348 257 c 0
 348 288 340 319 327 350 c 1
 219 346 139 295 139 183 c 0
 139 126 173 92 219 92 c 0
EndSplineSet
EndChar
StartChar: ntilde
Encoding: 241 241 251
Width: 562
Flags: MW
HStem: -5 21G<62 62 381 381> 406 95<304 332.5> 536 88<350.5 368.5 350.5 390.5> 619 89<199.5 224.5>
VStem: 62 95<13 13 13 489> 381 94<127 127 127 157 127 201>
LayerCount: 2
Back
Fore
SplineSet
419 701 m 1xec
 486 669 l 1
 475 638 441 536 340 536 c 0xec
 308 536 281 553 259 584 c 0
 243 607 232 619 217 619 c 0
 182 619 162 563 160 551 c 1
 95 584 l 1
 111 640 151 708 229 708 c 0xdc
 268 708 294 691 316 660 c 0
 332 638 343 624 358 624 c 0
 379 624 405 647 419 701 c 1xec
381 -5 m 1
 381 157 l 2
 381 245 381 309 370 352 c 0
 362 384 345 406 320 406 c 0
 288 406 247 394 205 319 c 0
 178 266 158 193 158 135 c 2
 157 13 l 1
 62 -5 l 1
 62 489 l 1
 158 507 l 1
 158 408 l 1
 197 464 256 501 322 501 c 0
 395 501 441 463 460 386 c 0
 474 326 474 249 475 127 c 2
 476 15 l 1
 381 -5 l 1
EndSplineSet
EndChar
StartChar: ograve
Encoding: 242 242 252
Width: 561
Flags: MW
HStem: 0 89<221.5 289.5 221.5 318> 411 89<242 309.5> 717 20G<251 251>
VStem: 48 97<195 281 195 304.5> 391 98<217 303.5>
LayerCount: 2
Back
Fore
SplineSet
395 579 m 1
 314 530 l 1
 153 682 l 1
 251 737 l 1
 395 579 l 1
254 0 m 0
 137 0 48 105 48 232 c 0
 48 377 155 500 282 500 c 0
 399 500 489 393 489 268 c 0
 489 122 382 0 254 0 c 0
278 411 m 0
 206 411 145 328 145 234 c 0
 145 156 189 89 254 89 c 0
 325 89 391 170 391 264 c 0
 391 343 341 411 278 411 c 0
EndSplineSet
EndChar
StartChar: oacute
Encoding: 243 243 199
Width: 561
Flags: MW
HStem: 0 89<221.5 289.5 221.5 318> 411 89<242 309.5> 711 20G<356 356>
VStem: 48 97<195 281 195 304.5> 391 98<217 303.5>
LayerCount: 2
Back
Fore
SplineSet
183 600 m 1
 356 731 l 1
 440 658 l 1
 254 540 l 1
 183 600 l 1
254 0 m 0
 137 0 48 105 48 232 c 0
 48 377 155 500 282 500 c 0
 399 500 489 393 489 268 c 0
 489 122 382 0 254 0 c 0
278 411 m 0
 206 411 145 328 145 234 c 0
 145 156 189 89 254 89 c 0
 325 89 391 170 391 264 c 0
 391 343 341 411 278 411 c 0
EndSplineSet
EndChar
StartChar: ocircumflex
Encoding: 244 244 200
Width: 561
Flags: MW
HStem: 0 89<221.5 289.5 221.5 318> 411 89<242 309.5> 700 20G<298 298>
VStem: 48 97<195 281 195 304.5> 391 98<217 303.5>
LayerCount: 2
Back
Fore
SplineSet
187 520 m 1
 129 585 l 1
 298 720 l 1
 446 580 l 1
 382 521 l 1
 292 602 l 1
 187 520 l 1
254 0 m 0
 137 0 48 105 48 232 c 0
 48 377 155 500 282 500 c 0
 399 500 489 393 489 268 c 0
 489 122 382 0 254 0 c 0
278 411 m 0
 206 411 145 328 145 234 c 0
 145 156 189 89 254 89 c 0
 325 89 391 170 391 264 c 0
 391 343 341 411 278 411 c 0
EndSplineSet
EndChar
StartChar: otilde
Encoding: 245 245 253
Width: 561
Flags: MW
HStem: 0 89<221.5 289.5 221.5 318> 411 89<242 309.5> 536 88<346.5 364.5 346.5 386.5> 619 89<195.5 220.5>
VStem: 48 97<195 281 195 304.5> 391 98<217 303.5>
LayerCount: 2
Back
Fore
SplineSet
254 0 m 0xec
 137 0 48 105 48 232 c 0
 48 377 155 500 282 500 c 0
 399 500 489 393 489 268 c 0
 489 122 382 0 254 0 c 0xec
278 411 m 0
 206 411 145 328 145 234 c 0
 145 156 189 89 254 89 c 0
 325 89 391 170 391 264 c 0
 391 343 341 411 278 411 c 0
415 701 m 1
 482 669 l 1
 471 638 437 536 336 536 c 0xec
 304 536 277 553 255 584 c 0
 239 607 228 619 213 619 c 0
 178 619 158 563 156 551 c 1
 91 584 l 1
 107 640 147 708 225 708 c 0xdc
 264 708 290 691 312 660 c 0
 328 638 339 624 354 624 c 0
 375 624 401 647 415 701 c 1
EndSplineSet
EndChar
StartChar: odieresis
Encoding: 246 246 202
Width: 561
Flags: MW
HStem: 0 89<221.5 289.5 221.5 318> 411 89<242 309.5> 652 20G<272 272 438 438>
VStem: 48 97<195 281 195 304.5> 391 98<217 303.5>
LayerCount: 2
Back
Fore
SplineSet
272 672 m 1
 261 561 l 1
 146 546 l 1
 160 658 l 1
 272 672 l 1
438 672 m 1
 426 561 l 1
 312 546 l 1
 325 658 l 1
 438 672 l 1
254 0 m 0
 137 0 48 105 48 232 c 0
 48 377 155 500 282 500 c 0
 399 500 489 393 489 268 c 0
 489 122 382 0 254 0 c 0
278 411 m 0
 206 411 145 328 145 234 c 0
 145 156 189 89 254 89 c 0
 325 89 391 170 391 264 c 0
 391 343 341 411 278 411 c 0
EndSplineSet
EndChar
StartChar: divide
Encoding: 247 247 203
Width: 433
Flags: MW
HStem: 87 21G<145 145> 218 83<43 371 61 353> 411 20G<268 268>
LayerCount: 2
Back
Fore
SplineSet
268 431 m 1
 258 336 l 1
 159 326 l 1
 170 419 l 1
 268 431 l 1
254 194 m 1
 244 99 l 1
 145 87 l 1
 156 182 l 1
 254 194 l 1
43 218 m 1
 61 301 l 1
 371 301 l 1
 353 218 l 1
 43 218 l 1
EndSplineSet
EndChar
StartChar: oslash
Encoding: 248 248 254
Width: 561
Flags: MW
HStem: -40 21G<146 146> 0 89<248.5 293 248.5 318> 411 89<241.5 281> 529 20G<383 383>
VStem: 48 97<220 279.5 220 303.5> 391 98<220.5 276.5>
LayerCount: 2
Back
Fore
SplineSet
463 503 m 1
 425 437 l 1
 467 394 489 329 489 268 c 0
 489 122 382 0 254 0 c 0
 228 0 202 5 178 15 c 1
 146 -40 l 1
 65 6 l 1
 104 70 l 1
 67 112 48 168 48 231 c 0
 48 376 154 500 282 500 c 0
 304 500 326 497 348 488 c 1
 383 549 l 1
 463 503 l 1
157 163 m 1
 301 408 l 1
 293 410 284 411 278 411 c 0
 205 411 145 327 145 232 c 0
 145 208 150 184 157 163 c 1
254 89 m 0
 332 89 391 179 391 262 c 0
 391 291 383 321 372 346 c 1
 224 94 l 1
 234 90 243 89 254 89 c 0
EndSplineSet
EndChar
StartChar: uacute
Encoding: 250 250 206
Width: 542
Flags: MW
HStem: -5 90<191.5 248> 711 20G<329 329>
VStem: 62 95<236 307> 359 99<167 491 491 491>
LayerCount: 2
Back
Fore
SplineSet
157 600 m 1
 329 731 l 1
 413 658 l 1
 227 540 l 1
 157 600 l 1
157 286 m 0
 157 186 157 85 226 85 c 0
 281 85 335 125 353 143 c 0
 357 147 359 155 359 167 c 2
 359 491 l 1
 458 508 l 1
 458 12 l 1
 356 -4 l 1
 356 36 l 1
 322 14 273 -5 223 -5 c 0
 61 -5 62 146 62 286 c 0
 62 328 67 418 79 492 c 1
 178 509 l 1
 175 488 157 359 157 286 c 0
EndSplineSet
EndChar
StartChar: ucircumflex
Encoding: 251 251 256
Width: 542
Flags: MW
HStem: -5 90<191.5 248> 700 20G<284 284>
VStem: 62 95<236 307> 359 99<167 491 491 491>
LayerCount: 2
Back
Fore
SplineSet
172 530 m 1
 114 595 l 1
 284 720 l 1
 432 590 l 1
 368 531 l 1
 278 612 l 1
 172 530 l 1
157 286 m 0
 157 186 157 85 226 85 c 0
 281 85 335 125 353 143 c 0
 357 147 359 155 359 167 c 2
 359 491 l 1
 458 508 l 1
 458 12 l 1
 356 -4 l 1
 356 36 l 1
 322 14 273 -5 223 -5 c 0
 61 -5 62 146 62 286 c 0
 62 328 67 418 79 492 c 1
 178 509 l 1
 175 488 157 359 157 286 c 0
EndSplineSet
EndChar
StartChar: yacute
Encoding: 253 253 209
Width: 526
Flags: MW
HStem: -188 21G<188 188> 711 20G<307 307>
LayerCount: 2
Back
Fore
SplineSet
134 600 m 1
 307 731 l 1
 392 658 l 1
 206 540 l 1
 134 600 l 1
404 507 m 1
 492 466 l 1
 188 -188 l 1
 101 -147 l 1
 205 77 l 1
 12 463 l 1
 98 506 l 1
 256 190 l 1
 404 507 l 1
EndSplineSet
EndChar
StartChar: thorn
Encoding: 254 254 258
Width: 554
Flags: MW
HStem: -173 21G<158 158> 0 95<243 303 235.5 368> 394 96<273 338> 658 20G<158 158>
VStem: 62 96<-156 15 111 286 447 660 660 660> 389 94<239.5 289.5>
LayerCount: 2
Back
Fore
SplineSet
301 490 m 0
 439 490 483 371 483 266 c 0
 483 213 475 0 261 0 c 0
 225 0 187 7 158 15 c 1
 158 -173 l 1
 62 -156 l 1
 62 660 l 1
 158 678 l 1
 158 447 l 1
 194 472 245 490 301 490 c 0
254 95 m 0
 352 95 389 164 389 266 c 0
 389 313 372 394 304 394 c 0
 220 394 158 346 158 286 c 2
 158 111 l 1
 179 104 217 95 254 95 c 0
EndSplineSet
EndChar
StartChar: ydieresis
Encoding: 255 255 257
Width: 526
Flags: MW
HStem: -187 21G<188 188> 652 20G<237 237 403 403>
LayerCount: 2
Back
Fore
SplineSet
237 672 m 1
 225 561 l 1
 111 546 l 1
 124 658 l 1
 237 672 l 1
403 672 m 1
 391 561 l 1
 276 546 l 1
 290 658 l 1
 403 672 l 1
404 508 m 1
 492 467 l 1
 188 -187 l 1
 101 -146 l 1
 205 78 l 1
 12 464 l 1
 98 507 l 1
 256 191 l 1
 404 508 l 1
EndSplineSet
EndChar
StartChar: Abreve
Encoding: 258 258 151
Width: 649
Flags: MW
HStem: -12 21G<501 501> 718 88<316.5 353 316.5 368.5> 866 20G<427 427>
LayerCount: 2
Back
Fore
SplineSet
375 684 m 1
 585 45 l 1
 501 -12 l 1
 417 240 l 1
 204 195 l 1
 129 -8 l 1
 42 36 l 1
 93 171 l 1
 70 168 l 1
 53 264 l 1
 133 279 l 1
 277 666 l 1
 375 684 l 1
244 303 m 1
 387 334 l 1
 325 518 l 1
 244 303 l 1
330 806 m 0
 376 806 406 829 427 886 c 1
 491 822 l 1
 468 755 402 718 335 718 c 0
 262 718 199 752 170 817 c 1
 230 878 l 1
 268 809 303 806 330 806 c 0
EndSplineSet
EndChar
StartChar: abreve
Encoding: 259 259 183
Width: 530
Flags: MW
HStem: -5 21G<350 350> 6 96<239 259 239 260.5> 417 95<236 299.5> 538 88<264.5 301 264.5 316.5> 686 20G<375 375>
VStem: 47 97<199.5 261.5 199.5 276.5> 350 96<13 34 34 34>
LayerCount: 2
Back
Fore
SplineSet
278 626 m 0x7e
 324 626 354 649 375 706 c 1
 439 642 l 1
 416 575 350 538 283 538 c 0
 210 538 147 572 118 637 c 1
 178 698 l 1
 216 629 251 626 278 626 c 0x7e
446 466 m 1
 446 13 l 1
 350 -5 l 1xbe
 350 34 l 1
 318 18 281 6 240 6 c 0
 129 6 47 95 47 226 c 0
 47 327 111 512 285 512 c 0
 339 512 395 492 446 466 c 1
144 227 m 0
 144 172 170 103 239 102 c 0x7e
 279 102 324 126 348 143 c 1
 352 404 l 1
 335 412 309 417 290 417 c 0
 182 417 144 296 144 227 c 0
EndSplineSet
EndChar
StartChar: Aogonek
Encoding: 260 260 116
Width: 663
Flags: MW
HStem: -196 84<445.5 463.5 445.5 475.5> 664 20G<375 375>
VStem: 334 91<-93 -73 -93 -61>
LayerCount: 2
Back
Fore
SplineSet
585 45 m 1
 466 -34 l 2
 448 -46 425 -60 425 -86 c 0
 425 -100 438 -112 453 -112 c 0
 474 -112 496 -98 524 -75 c 1
 575 -131 l 1
 549 -164 498 -196 453 -196 c 0
 385 -196 334 -161 334 -94 c 0
 334 -28 387 3 434 30 c 2
 478 55 l 1
 417 240 l 1
 204 195 l 1
 129 -8 l 1
 42 36 l 1
 93 171 l 1
 70 168 l 1
 53 264 l 1
 133 279 l 1
 277 666 l 1
 375 684 l 1
 585 45 l 1
244 303 m 1
 387 334 l 1
 325 518 l 1
 244 303 l 1
EndSplineSet
EndChar
StartChar: aogonek
Encoding: 261 261 133
Width: 536
Flags: MW
HStem: -196 74<355.5 378.5 355.5 380.5> 11 91<239 259 239 260.5> 417 95<236 299.5>
VStem: 47 97<199.5 261.5 199.5 276.5> 244 91<-103 -83 -103 -71> 350 96<18 39 39 39>
LayerCount: 2
Back
Fore
SplineSet
350 18 m 1
 350 39 l 1
 318 23 281 11 240 11 c 0
 129 11 47 95 47 226 c 0
 47 327 111 512 285 512 c 0
 339 512 395 492 446 466 c 1
 446 0 l 1
 376 -44 l 2
 358 -55 335 -70 335 -96 c 0
 335 -110 348 -122 363 -122 c 0
 394 -122 415 -108 443 -85 c 1
 485 -131 l 1
 459 -164 408 -196 353 -196 c 0
 295 -196 244 -163 244 -104 c 0
 244 -38 298 -11 350 18 c 1
144 227 m 0
 144 172 170 103 239 102 c 0
 279 102 324 126 348 143 c 1
 352 404 l 1
 335 412 309 417 290 417 c 0
 182 417 144 296 144 227 c 0
EndSplineSet
EndChar
StartChar: cacute
Encoding: 263 263 186
Width: 533
Flags: MW
HStem: 0 93 409 93<237 293> 711 20G<332 332>
VStem: 48 94<167 258 167 275>
LayerCount: 2
Back
Fore
SplineSet
159 600 m 1
 332 731 l 1
 416 658 l 1
 230 540 l 1
 159 600 l 1
276 93 m 0
 324 95 369 131 398 186 c 1
 470 114 l 1
 427 47 357 3 279 0 c 0
 158 -6 48 93 48 219 c 0
 48 331 137 502 274 502 c 0
 339 502 398 470 442 411 c 1
 372 342 l 1
 346 386 310 409 276 409 c 0
 198 409 142 295 142 221 c 0
 142 113 238 91 276 93 c 0
EndSplineSet
EndChar
StartChar: Ccaron
Encoding: 268 268 156
Width: 657
Flags: MW
HStem: -1 96<282 374.5 282 387.5> 502 163<460 549 460 549> 585 80 585 96<286.5 366 256.5 370.5> 877 20G<252 252 454 454>
VStem: 48 95<241 353.5 241 374>
LayerCount: 2
Back
Fore
SplineSet
454 897 m 1xac
 513 824 l 1
 339 701 l 1
 187 830 l 1
 252 897 l 1
 343 812 l 1
 454 897 l 1xac
335 -1 m 0
 179 -1 48 127 48 294 c 0
 48 454 167 681 346 681 c 0x9c
 386 681 426 667 460 651 c 1
 460 665 l 1
 549 665 l 1
 549 502 l 1
 460 502 l 1xcc
 460 539 l 1
 438 561 400 585 341 585 c 0
 232 585 143 411 143 296 c 0
 143 186 229 95 335 95 c 0
 414 95 482 140 523 221 c 1
 595 149 l 1
 538 56 440 -1 335 -1 c 0
EndSplineSet
EndChar
StartChar: ccaron
Encoding: 269 269 188
Width: 533
Flags: MW
HStem: 0 93 409 93<237 293> 702 20G<194 194 390 390>
VStem: 48 94<167 258 167 275>
LayerCount: 2
Back
Fore
SplineSet
390 722 m 1
 448 652 l 1
 278 532 l 1
 130 657 l 1
 194 722 l 1
 283 639 l 1
 390 722 l 1
276 93 m 0
 324 95 369 131 398 186 c 1
 470 114 l 1
 427 47 357 3 279 0 c 0
 158 -6 48 93 48 219 c 0
 48 331 137 502 274 502 c 0
 339 502 398 470 442 411 c 1
 372 342 l 1
 346 386 310 409 276 409 c 0
 198 409 142 295 142 221 c 0
 142 113 238 91 276 93 c 0
EndSplineSet
EndChar
StartChar: dcaron
Encoding: 271 271 195
Width: 635
Flags: MW
HStem: -5 21G<346 346> 5 90<182 244.5> 402 94<203.5 275 163 276> 664 20G<452 452>
VStem: 38 96<205 265 205 272> 357 87
LayerCount: 2
Back
Fore
SplineSet
557 679 m 1x7c
 646 624 l 1
 550 434 l 1
 465 482 l 1
 514 568 l 1
 472 592 l 1
 557 679 l 1x7c
359 667 m 1
 452 684 l 1
 437 12 l 1
 346 -5 l 1xbc
 346 47 l 1
 312 23 273 5 216 5 c 0
 94 5 38 118 38 228 c 0
 38 316 66 496 260 496 c 0
 290 496 324 488 355 479 c 1
 359 667 l 1
349 171 m 2
 354 376 l 1
 334 386 297 402 255 402 c 0
 152 402 134 299 134 231 c 0
 134 179 148 95 216 95 c 0x7c
 295 95 348 149 349 171 c 2
EndSplineSet
EndChar
StartChar: dcroat
Encoding: 273 273 196
Width: 576
Flags: MW
HStem: -5 21G<356 356> 5 90<192 254.5> 392 94<213.5 285 173 286> 523 83<292 366 275 367 460 545> 664 20G<462 462>
VStem: 48 96<200 260 200 267> 361 91
LayerCount: 2
Back
Fore
SplineSet
369 667 m 1x7e
 462 684 l 1
 460 606 l 1
 563 606 l 1
 545 523 l 1
 458 523 l 1
 447 12 l 1
 356 -5 l 1xbe
 356 47 l 1
 322 23 283 5 226 5 c 0
 104 5 48 113 48 223 c 0
 48 311 76 486 270 486 c 0
 300 486 334 478 365 469 c 1
 366 523 l 1
 275 523 l 1
 292 606 l 1
 367 606 l 1
 369 667 l 1x7e
359 171 m 2
 364 366 l 1
 344 376 307 392 265 392 c 0
 162 392 144 294 144 226 c 0
 144 174 158 95 226 95 c 0x7e
 305 95 358 149 359 171 c 2
EndSplineSet
EndChar
StartChar: Eogonek
Encoding: 280 280 158
Width: 637
Flags: MW
HStem: -196 84<451.5 469.5 451.5 481.5> 0 99<160 399 535 535> 304 98<160 497 160 526> 582 99<160 543 160 160>
VStem: 61 99<99 304 402 582> 340 91<-93 -73 -93 -72>
LayerCount: 2
Back
Fore
SplineSet
535 0 m 1
 472 -34 l 2
 454 -44 431 -60 431 -86 c 0
 431 -100 444 -112 459 -112 c 0
 480 -112 502 -98 530 -75 c 1
 583 -131 l 1
 557 -164 504 -196 459 -196 c 0
 391 -196 340 -161 340 -94 c 0
 340 -50 370 -22 399 0 c 1
 61 0 l 1
 61 681 l 1
 560 681 l 1
 543 582 l 1
 160 582 l 1
 160 402 l 1
 526 402 l 1
 497 304 l 1
 160 304 l 1
 160 99 l 1
 570 99 l 1
 535 0 l 1
EndSplineSet
EndChar
StartChar: eogonek
Encoding: 281 281 190
Width: 553
Flags: MW
HStem: -196 84<281.5 299.5 281.5 311.5> 410 92<246 304>
VStem: 48 92<247 290.5 247 319.5> 170 91<-93 -73 -93 -69.5>
LayerCount: 2
Back
Fore
SplineSet
302 -33 m 0
 284 -45 261 -60 261 -86 c 0
 261 -100 274 -112 289 -112 c 0
 310 -112 332 -98 360 -75 c 1
 411 -131 l 1
 385 -164 334 -196 289 -196 c 0
 221 -196 170 -161 170 -94 c 0
 170 -45 198 -15 232 7 c 1
 126 34 48 133 48 251 c 0
 48 388 155 502 291 502 c 0
 382 502 460 426 486 335 c 1
 168 158 l 1
 195 122 242 92 291 92 c 0
 332 92 374 115 413 156 c 1
 480 93 l 1
 449 61 418 34 302 -33 c 0
140 247 m 1
 365 375 l 1
 346 396 317 410 291 410 c 0
 201 410 140 334 140 247 c 1
EndSplineSet
EndChar
StartChar: Ecaron
Encoding: 282 282 160
Width: 637
Flags: MW
HStem: 0 99<160 535> 304 98<160 497 160 526> 582 99<160 543 160 160> 877 20G<212 212 414 414>
VStem: 61 99<99 99 99 304 402 582>
LayerCount: 2
Back
Fore
SplineSet
414 897 m 1
 473 824 l 1
 299 701 l 1
 147 830 l 1
 212 897 l 1
 303 812 l 1
 414 897 l 1
160 99 m 1
 570 99 l 1
 535 0 l 1
 61 0 l 1
 61 681 l 1
 560 681 l 1
 543 582 l 1
 160 582 l 1
 160 402 l 1
 526 402 l 1
 497 304 l 1
 160 304 l 1
 160 99 l 1
EndSplineSet
EndChar
StartChar: Lacute
Encoding: 313 313 153
Width: 513
Flags: MW
HStem: -2 21G<59 59> 13 103 886 20G<268 268>
VStem: 59 99<104 665 665 665>
LayerCount: 2
Back
Fore
SplineSet
91 772 m 1x70
 268 906 l 1
 354 831 l 1
 164 710 l 1
 91 772 l 1x70
59 -2 m 1xb0
 59 665 l 1
 158 683 l 1
 158 104 l 1
 475 128 l 1
 480 29 l 1
 59 -2 l 1xb0
EndSplineSet
EndChar
StartChar: lacute
Encoding: 314 314 185
Width: 252
Flags: MW
HStem: -5 21G<74 74> 865 20G<193 193>
VStem: 74 96<12 661 661 661>
LayerCount: 2
Back
Fore
SplineSet
20 754 m 1
 193 885 l 1
 277 812 l 1
 91 694 l 1
 20 754 l 1
74 661 m 1
 170 679 l 1
 170 12 l 1
 74 -5 l 1
 74 661 l 1
EndSplineSet
EndChar
StartChar: Lcaron
Encoding: 317 317 120
Width: 558
Flags: MW
HStem: -2 21G<102 102> 13 103 877 20G<116 116 317 317>
VStem: 102 99<104 665 665 665>
LayerCount: 2
Back
Fore
SplineSet
102 -2 m 1
 102 665 l 1
 201 683 l 1
 201 104 l 1
 517 128 l 1
 523 29 l 1
 102 -2 l 1
317 897 m 1
 376 824 l 1
 202 701 l 1
 51 825 l 1
 116 897 l 1
 207 812 l 1
 317 897 l 1
EndSplineSet
EndChar
StartChar: lcaron
Encoding: 318 318 137
Width: 316
Flags: MW
HStem: -5 21G<68 68> 662 20G<261 261>
VStem: 68 91<12 661 661 661>
LayerCount: 2
Back
Fore
SplineSet
68 661 m 1
 159 679 l 1
 159 12 l 1
 68 -5 l 1
 68 661 l 1
261 682 m 1
 351 627 l 1
 254 437 l 1
 180 485 l 1
 229 571 l 1
 186 595 l 1
 261 682 l 1
EndSplineSet
EndChar
StartChar: Lslash
Encoding: 321 321 118
Width: 575
Flags: MW
HStem: -2 21G<118 118> 13 103 663 20G<216 216>
VStem: 118 98<104 254 254 254 435 665 665 665>
LayerCount: 2
Back
Fore
SplineSet
539 29 m 1x70
 118 -2 l 1xb0
 118 254 l 1
 85 234 l 1
 28 318 l 1
 118 374 l 1
 118 665 l 1
 216 683 l 1
 216 435 l 1
 251 457 l 1
 304 374 l 1
 216 318 l 1
 216 104 l 1
 533 128 l 1
 539 29 l 1x70
EndSplineSet
EndChar
StartChar: lslash
Encoding: 322 322 135
Width: 292
Flags: MW
HStem: -5 21G<92 92> 659 20G<188 188>
VStem: 92 96<12 248 248 248 425 661 661 661>
LayerCount: 2
Back
Fore
SplineSet
274 365 m 1
 188 310 l 1
 188 12 l 1
 92 -5 l 1
 92 248 l 1
 60 228 l 1
 4 310 l 1
 92 365 l 1
 92 661 l 1
 188 679 l 1
 188 425 l 1
 222 447 l 1
 274 365 l 1
EndSplineSet
EndChar
StartChar: Nacute
Encoding: 323 323 165
Width: 641
Flags: MW
HStem: -4 21G<62 62> 886 20G<357 357>
VStem: 61 97 463 96<184 668 668 668>
LayerCount: 2
Back
Fore
SplineSet
180 772 m 1
 357 906 l 1
 444 831 l 1
 254 710 l 1
 180 772 l 1
463 668 m 1
 559 686 l 1
 559 16 l 1
 465 -3 l 1
 158 489 l 1
 158 15 l 1
 62 -4 l 1
 61 660 l 1
 149 685 l 1
 463 184 l 1
 463 668 l 1
EndSplineSet
EndChar
StartChar: Ncaron
Encoding: 327 327 166
Width: 641
Flags: MW
HStem: -4 21G<62 62> 877 20G<222 222 424 424>
VStem: 61 97 463 96<184 668 668 668>
LayerCount: 2
Back
Fore
SplineSet
424 897 m 1
 483 824 l 1
 309 701 l 1
 157 830 l 1
 222 897 l 1
 313 812 l 1
 424 897 l 1
463 668 m 1
 559 686 l 1
 559 16 l 1
 465 -3 l 1
 158 489 l 1
 158 15 l 1
 62 -4 l 1
 61 660 l 1
 149 685 l 1
 463 184 l 1
 463 668 l 1
EndSplineSet
EndChar
StartChar: ncaron
Encoding: 328 328 198
Width: 562
Flags: MW
HStem: -5 21G<62 62 381 381> 406 95<304 332.5> 702 20G<199 199 396 396>
VStem: 62 95<13 13 13 489> 381 94<127 127 127 157 127 201>
LayerCount: 2
Back
Fore
SplineSet
396 722 m 1
 453 652 l 1
 283 532 l 1
 135 657 l 1
 199 722 l 1
 288 639 l 1
 396 722 l 1
381 -5 m 1
 381 157 l 2
 381 245 381 309 370 352 c 0
 362 384 345 406 320 406 c 0
 288 406 247 394 205 319 c 0
 178 266 158 193 158 135 c 2
 157 13 l 1
 62 -5 l 1
 62 489 l 1
 158 507 l 1
 158 408 l 1
 197 464 256 501 322 501 c 0
 395 501 441 463 460 386 c 0
 474 326 474 249 475 127 c 2
 476 15 l 1
 381 -5 l 1
EndSplineSet
EndChar
StartChar: Ohungarumlaut
Encoding: 336 336 169
Width: 686
Flags: MW
HStem: 0 95<266 363.5 266 391> 589 95<293.5 393.5> 886 20G<296 296 515 515>
VStem: 57 96<256.5 392.5 256.5 416.5> 511 96<290.5 420>
LayerCount: 2
Back
Fore
SplineSet
119 772 m 1
 296 906 l 1
 372 831 l 1
 192 710 l 1
 119 772 l 1
338 772 m 1
 515 906 l 1
 592 831 l 1
 401 710 l 1
 338 772 l 1
312 0 m 0
 163 0 57 146 57 317 c 0
 57 516 194 684 351 684 c 0
 498 684 607 540 607 367 c 0
 607 168 470 0 312 0 c 0
345 589 m 0
 242 589 153 468 153 317 c 0
 153 196 220 95 312 95 c 0
 415 95 511 218 511 363 c 0
 511 477 442 589 345 589 c 0
EndSplineSet
EndChar
StartChar: ohungarumlaut
Encoding: 337 337 201
Width: 581
Flags: MW
HStem: 0 89<222.5 290.5 222.5 318.5> 411 89<243 310> 711 20G<261 261 480 480>
VStem: 49 97<195 281 195 304.5> 391 99<217 303.5>
LayerCount: 2
Back
Fore
SplineSet
255 0 m 0
 138 0 49 105 49 232 c 0
 49 377 156 500 283 500 c 0
 400 500 490 393 490 268 c 0
 490 122 382 0 255 0 c 0
279 411 m 0
 207 411 146 328 146 234 c 0
 146 156 190 89 255 89 c 0
 326 89 391 170 391 264 c 0
 391 343 341 411 279 411 c 0
84 597 m 1
 261 731 l 1
 337 656 l 1
 157 535 l 1
 84 597 l 1
303 597 m 1
 480 731 l 1
 557 656 l 1
 366 535 l 1
 303 597 l 1
EndSplineSet
EndChar
StartChar: OE
Encoding: 338 338 223
Width: 1119
Flags: MW
HStem: 0 99<617 992 518 518> 304 98<617 954 617 983> 582 99<617 1000 617 617> 664 20G<280 388>
VStem: 64 96<256.5 392.5 256.5 416.5> 518 99<0 99 99 99>
LayerCount: 2
Back
Fore
SplineSet
617 99 m 1xec
 1027 99 l 1
 992 0 l 1
 518 0 l 1
 518 99 l 1
 466 38 394 0 320 0 c 0
 171 0 64 146 64 317 c 0
 64 516 201 684 359 684 c 0xdc
 417 684 473 663 518 619 c 1
 518 681 l 1
 1017 681 l 1
 1000 582 l 1
 617 582 l 1
 617 402 l 1
 983 402 l 1
 954 304 l 1
 617 304 l 1
 617 99 l 1xec
518 365 m 1
 517 478 448 589 352 589 c 0
 250 589 160 468 160 317 c 0
 160 196 227 95 320 95 c 0
 419 95 507 199 518 365 c 1
EndSplineSet
EndChar
StartChar: oe
Encoding: 339 339 224
Width: 937
Flags: MW
HStem: 0 89<230 297.5 230 300.5> 411 91
VStem: 56 98<195 281 195 304.5> 399 98<247 290.5 247 303.5>
LayerCount: 2
Back
Fore
SplineSet
648 92 m 0
 689 92 732 115 771 156 c 1
 837 93 l 1
 781 33 713 0 648 0 c 0
 566 0 494 43 449 107 c 1
 406 43 338 0 263 0 c 0
 145 0 56 105 56 232 c 0
 56 377 164 500 291 500 c 0
 358 500 419 467 457 406 c 1
 501 465 569 502 648 502 c 0
 727 502 807 427 833 338 c 1
 833 338 621 212 525 158 c 1
 552 122 600 92 648 92 c 0
399 264 m 0
 399 343 349 411 286 411 c 0
 215 411 154 328 154 234 c 0
 154 156 197 89 263 89 c 0
 332 89 399 171 399 264 c 0
497 247 m 1
 722 375 l 1
 703 396 674 410 648 410 c 0
 558 410 497 334 497 247 c 1
EndSplineSet
EndChar
StartChar: racute
Encoding: 341 341 180
Width: 427
Flags: MW
HStem: -5 21G<59 59> 407 95<262 279.5> 711 20G<281 281>
VStem: 59 97<12 252 435 489 489 489> 291 96<356 387 387 391>
LayerCount: 2
Back
Fore
SplineSet
108 600 m 1
 281 731 l 1
 365 658 l 1
 179 540 l 1
 108 600 l 1
387 415 m 2
 387 356 l 1
 291 340 l 1
 291 387 l 2
 291 395 286 407 273 407 c 0
 218 407 156 328 156 252 c 2
 156 12 l 1
 59 -5 l 1
 59 489 l 1
 156 507 l 1
 156 435 l 1
 189 471 235 502 289 502 c 0
 345 502 387 463 387 415 c 2
EndSplineSet
EndChar
StartChar: rcaron
Encoding: 345 345 204
Width: 428
Flags: MW
HStem: -5 21G<59 59> 407 95<262 279.5> 702 20G<142 142 340 340>
VStem: 59 97<12 252 435 489 489 489> 291 96<356 387 387 391>
LayerCount: 2
Back
Fore
SplineSet
340 722 m 1
 397 652 l 1
 227 532 l 1
 79 657 l 1
 142 722 l 1
 231 639 l 1
 340 722 l 1
387 415 m 2
 387 356 l 1
 291 340 l 1
 291 387 l 2
 291 395 286 407 273 407 c 0
 218 407 156 328 156 252 c 2
 156 12 l 1
 59 -5 l 1
 59 489 l 1
 156 507 l 1
 156 435 l 1
 189 471 235 502 289 502 c 0
 345 502 387 463 387 415 c 2
EndSplineSet
EndChar
StartChar: Scedilla
Encoding: 350 350 125
Width: 625
Flags: MW
HStem: -196 57<296 311 296 329> -90 185<295.5 309> -1 96<308 308> 588 93<277.5 352.5>
VStem: 89 106<480.5 519.5 480.5 571.5> 331 67<-122.5 -107> 442 106<167.5 214>
LayerCount: 2
Back
Fore
SplineSet
303 308 m 0xde
 204 334 89 391 89 496 c 0
 89 647 225 681 330 681 c 0
 424 681 545 646 545 525 c 0
 545 518 545 511 541 488 c 1
 442 470 l 1
 449 484 450 508 450 513 c 0
 450 572 375 588 330 588 c 0
 217 588 195 537 195 502 c 0
 195 459 240 430 327 406 c 0
 475 365 548 298 548 200 c 0
 548 63 413 0 308 -1 c 1xbe
 307 -33 l 1
 360 -38 398 -60 398 -115 c 0
 398 -167 355 -196 303 -196 c 0
 272 -196 250 -186 227 -157 c 1
 271 -123 l 1
 277 -132 289 -139 303 -139 c 0
 319 -139 331 -130 331 -115 c 0
 331 -99 319 -90 299 -90 c 0
 292 -90 281 -93 276 -98 c 1
 234 -54 l 1
 254 4 l 1
 158 22 79 89 48 184 c 1
 152 200 l 1
 178 128 248 95 306 95 c 0
 381 95 442 136 442 199 c 0
 442 229 434 273 303 308 c 0xde
EndSplineSet
EndChar
StartChar: scedilla
Encoding: 351 351 142
Width: 486
Flags: MW
HStem: -196 57<236 251 236 269> -90 181<235.5 249> 0 91<248 248> 417 88<254 270>
VStem: 71 98<353 378.5 353 423> 271 67<-122.5 -107> 322 96<131 166>
LayerCount: 2
Back
Fore
SplineSet
174 -54 m 1xdc
 194 4 l 1
 125 19 62 71 40 151 c 1
 134 167 l 1
 150 116 194 91 236 91 c 0
 289 91 322 116 322 146 c 0
 322 186 281 205 230 219 c 0
 155 239 71 275 71 365 c 0
 71 481 177 505 254 505 c 0
 314 505 416 484 416 384 c 0
 416 376 416 369 412 347 c 1
 319 329 l 1
 326 349 326 364 326 372 c 0
 326 406 286 417 254 417 c 0
 187 416 169 391 169 366 c 0
 169 340 197 326 253 310 c 0
 364 279 418 229 418 155 c 0
 418 40 310 4 248 0 c 1xba
 247 -33 l 1
 300 -38 338 -60 338 -115 c 0
 338 -167 295 -196 243 -196 c 0
 212 -196 190 -186 167 -157 c 1
 211 -123 l 1
 217 -132 229 -139 243 -139 c 0
 259 -139 271 -130 271 -115 c 0
 271 -99 259 -90 239 -90 c 0
 232 -90 221 -93 216 -98 c 1
 174 -54 l 1xdc
EndSplineSet
EndChar
StartChar: scaron
Encoding: 353 353 141
Width: 486
Flags: MW
HStem: 0 91<215 262.5 215 265.5> 417 88<254 270> 712 20G<156 156 353 353>
VStem: 71 98<353 378.5 353 423> 322 96<131 166>
LayerCount: 2
Back
Fore
SplineSet
353 732 m 1
 411 657 l 1
 241 532 l 1
 92 662 l 1
 156 732 l 1
 245 649 l 1
 353 732 l 1
230 219 m 0
 155 239 71 275 71 365 c 0
 71 481 177 505 254 505 c 0
 314 505 416 484 416 384 c 0
 416 376 416 369 412 347 c 1
 319 329 l 1
 326 349 326 364 326 372 c 0
 326 406 286 417 254 417 c 0
 187 416 169 391 169 366 c 0
 169 340 197 326 253 310 c 0
 364 279 418 229 418 155 c 0
 418 33 295 0 236 0 c 0
 151 0 67 55 40 151 c 1
 134 167 l 1
 150 116 194 91 236 91 c 0
 289 91 322 116 322 146 c 0
 322 186 281 205 230 219 c 0
EndSplineSet
EndChar
StartChar: uni0162
Encoding: 354 354 178
Width: 548
Flags: MW
HStem: -247 21G<251 251> 582 99<9 208 9 522 308 308 308 522>
VStem: 208 100<12 582 12 582 12 582>
LayerCount: 2
Back
Fore
SplineSet
208 -5 m 1
 208 582 l 1
 9 582 l 1
 9 681 l 1
 522 681 l 1
 522 582 l 1
 308 582 l 1
 308 12 l 1
 208 -5 l 1
259 -16 m 1
 360 -62 l 1
 251 -247 l 1
 164 -198 l 1
 215 -119 l 1
 171 -95 l 1
 259 -16 l 1
EndSplineSet
EndChar
StartChar: uni0163
Encoding: 355 355 210
Width: 399
Flags: MW
HStem: -247 21G<181 181> 406 96<17 142 17 142 240 365> 640 20G<240 240>
VStem: 142 98<12 406 12 406 12 406 502 644 644 644>
LayerCount: 2
Back
Fore
SplineSet
365 502 m 1
 365 406 l 1
 240 406 l 1
 240 12 l 1
 142 -5 l 1
 142 406 l 1
 17 406 l 1
 17 502 l 1
 142 502 l 1
 142 644 l 1
 240 660 l 1
 240 502 l 1
 365 502 l 1
189 -16 m 1
 290 -62 l 1
 181 -247 l 1
 94 -198 l 1
 145 -119 l 1
 101 -95 l 1
 189 -16 l 1
EndSplineSet
EndChar
StartChar: tcaron
Encoding: 357 357 143
Width: 455
Flags: MW
HStem: -5 21G<134 134> 406 96<8 134 8 134 226 352 8 226> 731 20G<357 357>
VStem: 134 92<12 406 12 406 12 406 502 644 644 644>
LayerCount: 2
Back
Fore
SplineSet
357 751 m 1
 446 696 l 1
 359 526 l 1
 275 574 l 1
 324 660 l 1
 281 684 l 1
 357 751 l 1
352 502 m 1
 352 406 l 1
 226 406 l 1
 226 12 l 1
 134 -5 l 1
 134 406 l 1
 8 406 l 1
 8 502 l 1
 134 502 l 1
 134 644 l 1
 226 660 l 1
 226 502 l 1
 352 502 l 1
EndSplineSet
EndChar
StartChar: Uring
Encoding: 366 366 173
Width: 710
Flags: MW
HStem: 0 92<261.5 427.5 261.5 473> 702 84<333.5 360 333.5 379> 857 85<348.5 373>
VStem: 63 99<351.5 482 351.5 483.5> 215 86<806.5 828.5 806.5 850.5> 408 84<814.5 834.5> 525 99<353.5 463.5>
LayerCount: 2
Back
Fore
SplineSet
343 0 m 0
 103 0 63 194 63 451 c 0
 63 516 65 640 66 668 c 1
 165 685 l 1
 164 664 162 521 162 443 c 0
 162 260 180 92 343 92 c 0
 512 92 525 276 525 425 c 0
 525 502 523 633 522 666 c 1
 621 685 l 1
 622 662 624 536 624 467 c 0
 624 240 603 0 343 0 c 0
344 702 m 0
 268 702 215 752 215 815 c 0
 215 886 281 942 363 942 c 0
 442 942 492 887 492 828 c 0
 492 744 414 702 344 702 c 0
360 857 m 0
 337 857 301 842 301 815 c 0
 301 798 321 786 346 786 c 0
 374 786 408 803 408 826 c 0
 408 843 386 857 360 857 c 0
EndSplineSet
EndChar
StartChar: uring
Encoding: 367 367 205
Width: 541
Flags: MW
HStem: -5 90<191.5 248> 542 84<260.5 287 260.5 306> 697 85<275.5 300>
VStem: 62 95<236 307> 142 86<646.5 668.5 646.5 690.5> 335 84<654.5 674.5> 359 99<167 491 491 491>
LayerCount: 2
Back
Fore
SplineSet
157 286 m 0xf2
 157 186 157 85 226 85 c 0
 281 85 335 125 353 143 c 0
 357 147 359 155 359 167 c 2
 359 491 l 1
 458 508 l 1
 458 12 l 1
 356 -4 l 1
 356 36 l 1
 322 14 273 -5 223 -5 c 0
 61 -5 62 146 62 286 c 0
 62 328 67 418 79 492 c 1
 178 509 l 1
 175 488 157 359 157 286 c 0xf2
271 542 m 0
 195 542 142 592 142 655 c 0
 142 726 208 782 290 782 c 0
 369 782 419 727 419 668 c 0xec
 419 584 341 542 271 542 c 0
287 697 m 0
 264 697 228 682 228 655 c 0
 228 638 248 626 273 626 c 0
 301 626 335 643 335 666 c 0
 335 683 313 697 287 697 c 0
EndSplineSet
EndChar
StartChar: Uhungarumlaut
Encoding: 368 368 175
Width: 710
Flags: MW
HStem: 0 92<261.5 427.5 261.5 473> 886 20G<308 308 527 527>
VStem: 63 99<351.5 482 351.5 483.5> 525 99<353.5 463.5>
LayerCount: 2
Back
Fore
SplineSet
343 0 m 0
 103 0 63 194 63 451 c 0
 63 516 65 640 66 668 c 1
 165 685 l 1
 164 664 162 521 162 443 c 0
 162 260 180 92 343 92 c 0
 512 92 525 276 525 425 c 0
 525 502 523 633 522 666 c 1
 621 685 l 1
 622 662 624 536 624 467 c 0
 624 240 603 0 343 0 c 0
131 772 m 1
 308 906 l 1
 384 831 l 1
 204 710 l 1
 131 772 l 1
350 772 m 1
 527 906 l 1
 604 831 l 1
 413 710 l 1
 350 772 l 1
EndSplineSet
EndChar
StartChar: uhungarumlaut
Encoding: 369 369 207
Width: 564
Flags: MW
HStem: -5 90<191.5 248> 711 20G<233 233 452 452>
VStem: 62 95<236 307> 359 99<167 491 491 491>
LayerCount: 2
Back
Fore
SplineSet
56 597 m 1
 233 731 l 1
 309 656 l 1
 129 535 l 1
 56 597 l 1
275 597 m 1
 452 731 l 1
 529 656 l 1
 338 535 l 1
 275 597 l 1
157 286 m 0
 157 186 157 85 226 85 c 0
 281 85 335 125 353 143 c 0
 357 147 359 155 359 167 c 2
 359 491 l 1
 458 508 l 1
 458 12 l 1
 356 -4 l 1
 356 36 l 1
 322 14 273 -5 223 -5 c 0
 61 -5 62 146 62 286 c 0
 62 328 67 418 79 492 c 1
 178 509 l 1
 175 488 157 359 157 286 c 0
EndSplineSet
EndChar
StartChar: Ydieresis
Encoding: 376 376 225
Width: 654
Flags: MW
HStem: 0 21G<135 248 135 135> 793 20G<317 317 486 486>
LayerCount: 2
Back
Fore
SplineSet
317 813 m 1
 305 689 l 1
 187 674 l 1
 201 798 l 1
 317 813 l 1
486 813 m 1
 474 689 l 1
 356 674 l 1
 370 798 l 1
 486 813 l 1
324 318 m 1
 537 677 l 1
 650 677 l 1
 248 0 l 1
 135 0 l 1
 266 223 l 1
 2 677 l 1
 114 677 l 1
 324 318 l 1
EndSplineSet
EndChar
StartChar: Zacute
Encoding: 377 377 129
Width: 647
Flags: MW
HStem: 0 103<182 557> 578 103<87 442 70 547> 886 20G<387 387>
LayerCount: 2
Back
Fore
SplineSet
210 772 m 1
 387 906 l 1
 474 831 l 1
 283 710 l 1
 210 772 l 1
77 0 m 1
 41 77 l 1
 442 578 l 1
 70 578 l 1
 87 681 l 1
 547 681 l 1
 583 603 l 1
 182 103 l 1
 574 103 l 1
 557 0 l 1
 77 0 l 1
EndSplineSet
EndChar
StartChar: zacute
Encoding: 378 378 144
Width: 479
Flags: MW
HStem: 0 96<166 411> 406 96<59 291 42 402> 711 20G<285 285>
LayerCount: 2
Back
Fore
SplineSet
411 0 m 1
 55 0 l 1
 22 68 l 1
 291 406 l 1
 42 406 l 1
 59 502 l 1
 402 502 l 1
 434 435 l 1
 166 96 l 1
 428 96 l 1
 411 0 l 1
112 600 m 1
 285 731 l 1
 370 658 l 1
 183 540 l 1
 112 600 l 1
EndSplineSet
EndChar
StartChar: Zdotaccent
Encoding: 379 379 132
Width: 647
Flags: MW
HStem: 0 103<182 557> 578 103<87 442 70 547> 814 20G<377 377>
LayerCount: 2
Back
Fore
SplineSet
77 0 m 1
 41 77 l 1
 442 578 l 1
 70 578 l 1
 87 681 l 1
 547 681 l 1
 583 603 l 1
 182 103 l 1
 574 103 l 1
 557 0 l 1
 77 0 l 1
377 834 m 1
 365 720 l 1
 247 704 l 1
 261 819 l 1
 377 834 l 1
EndSplineSet
EndChar
StartChar: zdotaccent
Encoding: 380 380 147
Width: 479
Flags: MW
HStem: 0 96<166 411> 406 96<59 291 42 402> 652 20G<303 303>
LayerCount: 2
Back
Fore
SplineSet
303 672 m 1
 292 561 l 1
 177 546 l 1
 191 658 l 1
 303 672 l 1
411 0 m 1
 55 0 l 1
 22 68 l 1
 291 406 l 1
 42 406 l 1
 59 502 l 1
 402 502 l 1
 434 435 l 1
 166 96 l 1
 428 96 l 1
 411 0 l 1
EndSplineSet
EndChar
StartChar: Zcaron
Encoding: 381 381 131
Width: 647
Flags: MW
HStem: 0 103<182 557> 578 103<87 442 70 547> 887 20G<223 223 424 424>
LayerCount: 2
Back
Fore
SplineSet
424 907 m 1
 483 829 l 1
 310 701 l 1
 158 835 l 1
 223 907 l 1
 314 822 l 1
 424 907 l 1
77 0 m 1
 41 77 l 1
 442 578 l 1
 70 578 l 1
 87 681 l 1
 547 681 l 1
 583 603 l 1
 182 103 l 1
 574 103 l 1
 557 0 l 1
 77 0 l 1
EndSplineSet
EndChar
StartChar: zcaron
Encoding: 382 382 146
Width: 479
Flags: MW
HStem: 0 96<166 411> 406 96<59 291 42 402> 712 20G<151 151 347 347>
LayerCount: 2
Back
Fore
SplineSet
347 732 m 1
 404 657 l 1
 235 522 l 1
 87 662 l 1
 151 732 l 1
 240 649 l 1
 347 732 l 1
411 0 m 1
 55 0 l 1
 22 68 l 1
 291 406 l 1
 42 406 l 1
 59 502 l 1
 402 502 l 1
 434 435 l 1
 166 96 l 1
 428 96 l 1
 411 0 l 1
EndSplineSet
EndChar
StartChar: caron
Encoding: 711 711 139
Width: 526
Flags: MW
HStem: 492 21G<241 241> 682 20G<156 156 353 353>
LayerCount: 2
Back
Fore
SplineSet
353 702 m 1
 410 627 l 1
 241 492 l 1
 92 632 l 1
 156 702 l 1
 245 619 l 1
 353 702 l 1
EndSplineSet
EndChar
StartChar: breve
Encoding: 728 728 117
Width: 526
Flags: MW
HStem: 508 88<237.5 274 237.5 289.5> 666 20G<348 348>
LayerCount: 2
Back
Fore
SplineSet
251 596 m 0
 297 596 327 629 348 686 c 1
 412 622 l 1
 389 555 323 508 256 508 c 0
 183 508 120 552 91 617 c 1
 151 678 l 1
 189 609 224 596 251 596 c 0
EndSplineSet
EndChar
StartChar: dotaccent
Encoding: 729 729 211
Width: 526
Flags: MW
HStem: 494 21G<188 188> 610 20G<314 314>
LayerCount: 2
Back
Fore
SplineSet
314 630 m 1
 303 509 l 1
 188 494 l 1
 202 616 l 1
 314 630 l 1
EndSplineSet
EndChar
StartChar: ogonek
Encoding: 731 731 134
Width: 526
Flags: MW
HStem: -196 84<253.5 271.5 253.5 283.5> 54 20G<318 318>
VStem: 142 91<-93 -73 -93 -61>
LayerCount: 2
Back
Fore
SplineSet
356 18 m 1
 274 -34 l 2
 256 -46 233 -60 233 -86 c 0
 233 -100 246 -112 261 -112 c 0
 282 -112 304 -98 332 -75 c 1
 383 -131 l 1
 357 -164 306 -196 261 -196 c 0
 193 -196 142 -161 142 -94 c 0
 142 -28 195 3 242 30 c 2
 318 74 l 1
 356 18 l 1
EndSplineSet
EndChar
StartChar: hungarumlaut
Encoding: 733 733 145
Width: 526
Flags: MW
HStem: 510 21G<92 92 298 298> 691 20G<193 193 409 409>
LayerCount: 2
Back
Fore
SplineSet
21 570 m 1
 193 711 l 1
 267 638 l 1
 92 510 l 1
 21 570 l 1
236 570 m 1
 409 711 l 1
 484 638 l 1
 298 510 l 1
 236 570 l 1
EndSplineSet
EndChar
StartChar: endash
Encoding: 8211 8211 92
Width: 622
Flags: MW
HStem: 202 94<80 515 64 533>
LayerCount: 2
Back
Fore
SplineSet
515 202 m 1
 64 202 l 1
 80 296 l 1
 533 296 l 1
 515 202 l 1
EndSplineSet
EndChar
StartChar: emdash
Encoding: 8212 8212 73
Width: 903
Flags: MW
HStem: 202 96<87 778 70 795>
LayerCount: 2
Back
Fore
SplineSet
778 202 m 1
 70 202 l 1
 87 298 l 1
 795 298 l 1
 778 202 l 1
EndSplineSet
EndChar
StartChar: quoteleft
Encoding: 8216 8216 84
Width: 208
Flags: MW
HStem: 489 21G<104 104> 715 20G<111 111>
LayerCount: 2
Back
Fore
SplineSet
104 489 m 1
 4 545 l 1
 111 735 l 1
 195 687 l 1
 146 600 l 1
 189 577 l 1
 104 489 l 1
EndSplineSet
EndChar
StartChar: quoteright
Encoding: 8217 8217 67
Width: 208
Flags: MW
HStem: 487 21G<89 89> 712 20G<96 96>
LayerCount: 2
Back
Fore
SplineSet
96 732 m 1
 195 677 l 1
 89 487 l 1
 4 535 l 1
 53 621 l 1
 11 645 l 1
 96 732 l 1
EndSplineSet
EndChar
StartChar: quotedblleft
Encoding: 8220 8220 91
Width: 374
Flags: MW
HStem: 489 21G<87 87 278 278> 715 20G<95 95 286 286>
LayerCount: 2
Back
Fore
SplineSet
278 489 m 1
 179 545 l 1
 286 735 l 1
 370 687 l 1
 321 600 l 1
 364 577 l 1
 278 489 l 1
87 489 m 1
 -12 545 l 1
 95 735 l 1
 179 687 l 1
 130 600 l 1
 173 577 l 1
 87 489 l 1
EndSplineSet
EndChar
StartChar: quotedblright
Encoding: 8221 8221 66
Width: 374
Flags: MW
HStem: 487 21G<73 73 264 264> 712 20G<80 80 271 271>
LayerCount: 2
Back
Fore
SplineSet
80 732 m 1
 179 677 l 1
 73 487 l 1
 -12 535 l 1
 37 621 l 1
 -5 645 l 1
 80 732 l 1
271 732 m 1
 370 677 l 1
 264 487 l 1
 179 535 l 1
 228 621 l 1
 185 645 l 1
 271 732 l 1
EndSplineSet
EndChar
StartChar: bullet
Encoding: 8226 8226 78
Width: 404
Flags: MW
HStem: 149 207<165.5 223>
VStem: 91 206<224.5 281.5>
LayerCount: 2
Back
Fore
SplineSet
297 253 m 0
 297 196 252 149 194 149 c 0
 137 149 91 196 91 253 c 0
 91 310 137 356 194 356 c 0
 252 356 297 310 297 253 c 0
EndSplineSet
EndChar
StartChar: ellipsis
Encoding: 8230 8230 69
Width: 760
Flags: MW
HStem: -4 21G<66 66 299 299 532 532> 113 20G<192 192 425 425 658 658>
LayerCount: 2
Back
Fore
SplineSet
192 133 m 1
 180 12 l 1
 66 -4 l 1
 80 118 l 1
 192 133 l 1
425 133 m 1
 413 12 l 1
 299 -4 l 1
 312 118 l 1
 425 133 l 1
658 133 m 1
 646 12 l 1
 532 -4 l 1
 545 118 l 1
 658 133 l 1
EndSplineSet
EndChar
StartChar: guilsinglleft
Encoding: 8249 8249 110
Width: 430
Flags: MW
HStem: 49 21G<275 275> 435 20G<293 293>
LayerCount: 2
Back
Fore
SplineSet
275 49 m 1
 53 251 l 1
 293 455 l 1
 354 384 l 1
 196 248 l 1
 339 119 l 1
 275 49 l 1
EndSplineSet
EndChar
StartChar: guilsinglright
Encoding: 8250 8250 64
Width: 430
Flags: MW
HStem: 51 21G<139 139> 437 20G<121 121>
LayerCount: 2
Back
Fore
SplineSet
139 51 m 1
 73 121 l 1
 217 252 l 1
 60 386 l 1
 121 457 l 1
 361 253 l 1
 139 51 l 1
EndSplineSet
EndChar
StartChar: Euro
Encoding: 8364 8364 75
Width: 689
Flags: MW
HStem: 0 95<367.5 432 367.5 443.5> 227 88<73 131 73 136 56 131 231 231 231 429> 370 87<73 138 56 163 73 232 263 448> 579 95<388 444>
LayerCount: 2
Back
Fore
SplineSet
413 0 m 0
 275 0 153 94 136 227 c 1
 56 227 l 1
 73 315 l 1
 131 315 l 1
 133 333 134 352 138 370 c 1
 56 370 l 1
 73 457 l 1
 163 457 l 1
 191 534 283 674 424 674 c 0
 489 674 553 646 607 597 c 1
 539 533 l 1
 509 557 469 579 419 579 c 0
 357 579 294 517 263 457 c 1
 465 457 l 1
 448 370 l 1
 232 370 l 1
 227 352 224 333 223 315 c 1
 446 315 l 1
 429 227 l 1
 231 227 l 1
 257 145 328 95 407 95 c 0
 457 95 498 110 534 132 c 1
 603 66 l 1
 543 25 474 0 413 0 c 0
EndSplineSet
EndChar
StartChar: trademark
Encoding: 8482 8482 97
Width: 585
Flags: MW
HStem: 412 21G<220 220> 587 87<9 103 9 276 190 276 190 190> 658 20G<404 404 534 534>
VStem: 103 87<432 587 432 587 432 587>
LayerCount: 2
Back
Fore
SplineSet
276 674 m 1xd0
 276 587 l 1
 190 587 l 1
 190 432 l 1
 103 414 l 1
 103 587 l 1
 9 587 l 1
 9 674 l 1
 276 674 l 1xd0
534 678 m 1xb0
 612 430 l 1
 525 417 l 1
 494 514 l 1
 462 429 l 1
 382 415 l 1
 355 514 l 1
 321 429 l 1
 220 412 l 1
 324 664 l 1
 404 678 l 1
 427 585 l 1
 456 665 l 1
 534 678 l 1xb0
EndSplineSet
EndChar
StartChar: .notdef
Encoding: 65536 -1 0
Width: 526
Flags: MW
HStem: 0 84<135 361 135 492> 597 84<143 143 143 369>
VStem: 15 84<183 511 183 681> 408 84<167 502 502 502>
LayerCount: 2
Back
Fore
SplineSet
15 681 m 1
 492 681 l 1
 492 0 l 1
 15 0 l 1
 15 681 l 1
202 342 m 1
 99 511 l 1
 99 183 l 1
 202 342 l 1
143 597 m 1
 253 418 l 1
 369 597 l 1
 143 597 l 1
251 263 m 1
 135 84 l 1
 361 84 l 1
 251 263 l 1
301 339 m 1
 408 167 l 1
 408 502 l 1
 301 339 l 1
EndSplineSet
EndChar
